# Blender 5.2.1 LTS
# www.blender.org
mtllib Case_Top.mtl
o Case_Top
v 21.000000 3.500000 35.900002
v -21.000000 3.500000 -42.099998
v -21.000000 3.500000 35.900002
v 21.802340 3.500000 36.005630
v 21.000000 3.500000 -42.099998
v -20.197660 3.500000 36.005630
v 27.400000 1.600000 -39.400002
v 22.549999 3.500000 36.315323
v -25.400000 5.950000 34.820000
v 21.802340 3.500000 -41.994370
v 23.192032 3.500000 36.807968
v -19.450001 3.500000 36.315323
v 23.684679 3.500000 37.450001
v -20.197660 3.500000 -41.994370
v -18.807968 3.500000 36.807968
v 23.994370 3.500000 38.197662
v 27.284712 1.600000 -40.570541
v 22.549999 3.500000 -41.684677
v 26.943277 1.600000 -41.696102
v 24.100000 3.500000 39.000000
v -18.315321 3.500000 37.450001
v -19.450001 3.500000 -41.684677
v 23.994370 3.500000 39.802338
v 23.192032 3.500000 -41.192032
v 23.684679 3.500000 40.549999
v -18.005630 3.500000 38.197662
v -25.400000 5.950000 -35.180000
v 26.388817 1.600000 -42.733421
v 23.192032 3.500000 41.192032
v -17.900000 3.500000 39.000000
v 22.549999 3.500000 41.684677
v 23.684679 3.500000 -40.549999
v -18.807968 3.500000 -41.192032
v -18.005630 3.500000 39.802338
v 21.802340 3.500000 41.994370
v 25.642641 1.600000 -43.642639
v -18.315321 3.500000 40.549999
v 21.000000 3.500000 42.099998
v 23.994370 3.500000 -39.802338
v 20.197660 3.500000 41.994370
v 25.400000 5.950000 34.820000
v -18.807968 3.500000 41.192032
v 19.450001 3.500000 41.684677
v -18.315321 3.500000 -40.549999
v 24.100000 3.500000 -39.000000
v 24.733421 1.600000 -44.388817
v 18.807968 3.500000 41.192032
v -19.450001 3.500000 41.684677
v 23.994370 3.500000 -38.197662
v 18.315321 3.500000 40.549999
v -20.197660 3.500000 41.994370
v 23.696100 1.600000 -44.943275
v 18.005630 3.500000 39.802338
v 25.400000 5.950000 -35.180000
v -21.000000 3.500000 42.099998
v 17.900000 3.500000 39.000000
v -18.005630 3.500000 -39.802338
v 18.005630 3.500000 38.197662
v 23.684679 3.500000 -37.450001
v 22.570541 1.600000 -45.284710
v -21.802340 3.500000 41.994370
v 18.315321 3.500000 37.450001
v -21.400000 1.600000 -45.400002
v 18.807968 3.500000 36.807968
v 23.192032 3.500000 -36.807968
v -22.549999 3.500000 41.684677
v 19.450001 3.500000 36.315323
v -17.900000 3.500000 -39.000000
v -22.570541 1.600000 -45.284710
v 20.197660 3.500000 36.005630
v -23.192032 3.500000 41.192032
v 22.549999 3.500000 -36.315323
v -18.005630 3.500000 -38.197662
v -23.684679 3.500000 40.549999
v -23.696100 1.600000 -44.943275
v 21.802340 3.500000 -36.005630
v -23.994370 3.500000 39.802338
v -24.733421 1.600000 -44.388817
v 21.000000 3.500000 -35.900002
v -24.100000 3.500000 39.000000
v -25.642641 1.600000 -43.642639
v -18.315321 3.500000 -37.450001
v -23.994370 3.500000 38.197662
v 20.197660 3.500000 -36.005630
v -26.388817 1.600000 -42.733421
v -23.684679 3.500000 37.450001
v -18.807968 3.500000 -36.807968
v -26.943277 1.600000 -41.696102
v -23.192032 3.500000 36.807968
v 19.450001 3.500000 -36.315323
v -22.549999 3.500000 36.315323
v -27.284712 1.600000 -40.570541
v -27.400000 1.600000 39.400002
v -21.802340 3.500000 36.005630
v 18.807968 3.500000 -36.807968
v -19.450001 3.500000 -36.315323
v -27.284712 1.600000 40.570541
v 18.315321 3.500000 -37.450001
v -26.943277 1.600000 41.696102
v 18.005630 3.500000 -38.197662
v -20.197660 3.500000 -36.005630
v -26.388817 1.600000 42.733421
v -25.642641 1.600000 43.642639
v 17.900000 3.500000 -39.000000
v -21.000000 3.500000 -35.900002
v 18.005630 3.500000 -39.802338
v -24.733421 1.600000 44.388817
v -23.696100 1.600000 44.943275
v 18.315321 3.500000 -40.549999
v -21.802340 3.500000 -36.005630
v -22.570541 1.600000 45.284710
v 18.807968 3.500000 -41.192032
v -22.549999 3.500000 -36.315323
v 21.400000 1.600000 45.400002
v 19.450001 3.500000 -41.684677
v 22.570541 1.600000 45.284710
v -23.192032 3.500000 -36.807968
v 20.197660 3.500000 -41.994370
v 23.696100 1.600000 44.943275
v 24.733421 1.600000 44.388817
v -23.684679 3.500000 -37.450001
v 25.642641 1.600000 43.642639
v 26.388817 1.600000 42.733421
v 26.943277 1.600000 41.696102
v -23.994370 3.500000 -38.197662
v 27.284712 1.600000 40.570541
v -24.100000 3.500000 -39.000000
v 27.400000 6.600000 -39.400002
v 27.284712 6.600000 -40.570541
v 26.943277 6.600000 -41.696102
v -23.994370 3.500000 -39.802338
v 26.388817 6.600000 -42.733421
v 25.642641 6.600000 -43.642639
v -23.684679 3.500000 -40.549999
v 24.733421 6.600000 -44.388817
v 23.696100 6.600000 -44.943275
v -23.192032 3.500000 -41.192032
v 22.570541 6.600000 -45.284710
v -21.400000 6.600000 -45.400002
v -22.549999 3.500000 -41.684677
v -22.570541 6.600000 -45.284710
v -23.696100 6.600000 -44.943275
v -21.802340 3.500000 -41.994370
v -24.733421 6.600000 -44.388817
v -25.642641 6.600000 -43.642639
v -26.388817 6.600000 -42.733421
v -26.943277 6.600000 -41.696102
v -27.284712 6.600000 -40.570541
v -27.400000 6.600000 39.400002
v -27.284712 6.600000 40.570541
v -26.943277 6.600000 41.696102
v -26.388817 6.600000 42.733421
v -25.642641 6.600000 43.642639
v -24.733421 6.600000 44.388817
v -23.696100 6.600000 44.943275
v -22.570541 6.600000 45.284710
v 21.400000 6.600000 45.400002
v 22.570541 6.600000 45.284710
v 23.696100 6.600000 44.943275
v 24.733421 6.600000 44.388817
v 25.642641 6.600000 43.642639
v 26.388817 6.600000 42.733421
v 26.943277 6.600000 41.696102
v 27.284712 6.600000 40.570541
v 25.400000 1.600000 34.820000
v -25.400000 1.600000 -35.180000
v 25.400000 1.600000 -35.180000
v -25.400000 1.600000 34.820000
v 22.250000 6.600000 -32.830002
v 22.250000 6.600000 26.670000
v -22.250000 6.600000 26.670000
v -22.250000 6.600000 -32.830002
v 22.250000 5.950000 26.670000
v -22.250000 5.950000 26.670000
v -22.250000 5.950000 -32.830002
v 22.250000 5.950000 -32.830002
v 14.250000 1.600000 -38.500000
v 14.275556 1.600000 -38.305885
v 14.275556 1.600000 -38.694115
v 14.350481 1.600000 -38.125000
v 14.350481 1.600000 -38.875000
v 14.805885 1.600000 -37.775555
v 14.805885 1.600000 -39.224445
v 14.625000 1.600000 -37.850479
v 14.625000 1.600000 -39.149521
v 14.469670 1.600000 -37.969669
v 14.469670 1.600000 -39.030331
v 15.194115 1.600000 -39.224445
v 15.375000 1.600000 -37.850479
v 15.194115 1.600000 -37.775555
v 15.375000 1.600000 -39.149521
v 15.649519 1.600000 -38.125000
v 15.649519 1.600000 -38.875000
v 15.750000 1.600000 -38.500000
v 15.724444 1.600000 -38.305885
v 15.724444 1.600000 -38.694115
v 15.530330 1.600000 -37.969669
v 15.530330 1.600000 -39.030331
v 15.000000 1.600000 -39.250000
v 15.000000 1.600000 -37.750000
v 14.250000 6.600000 -38.500000
v 14.275556 6.600000 -38.305885
v 14.275556 6.600000 -38.694115
v 14.350481 6.600000 -38.125000
v 14.350481 6.600000 -38.875000
v 14.805885 6.600000 -37.775555
v 14.805885 6.600000 -39.224445
v 14.625000 6.600000 -37.850479
v 14.625000 6.600000 -39.149521
v 14.469670 6.600000 -37.969669
v 14.469670 6.600000 -39.030331
v 15.194115 6.600000 -37.775555
v 15.375000 6.600000 -39.149521
v 15.375000 6.600000 -37.850479
v 15.194115 6.600000 -39.224445
v 15.649519 6.600000 -38.125000
v 15.649519 6.600000 -38.875000
v 15.750000 6.600000 -38.500000
v 15.724444 6.600000 -38.305885
v 15.724444 6.600000 -38.694115
v 15.530330 6.600000 -37.969669
v 15.530330 6.600000 -39.030331
v 15.000000 6.600000 -39.250000
v 15.000000 6.600000 -37.750000
v -22.700001 1.600000 -39.000000
v -22.642075 1.600000 -38.560009
v -22.472242 1.600000 -39.849998
v -22.472242 1.600000 -38.150002
v -22.642075 1.600000 -39.439991
v -22.202082 1.600000 -37.797920
v -21.439993 1.600000 -37.357925
v -21.439993 1.600000 -40.642075
v -21.850000 1.600000 -37.527756
v -21.850000 1.600000 -40.472244
v -22.202082 1.600000 -40.202080
v -20.150000 1.600000 -37.527756
v -20.150000 1.600000 -40.472244
v -20.560007 1.600000 -37.357925
v -20.560007 1.600000 -40.642075
v -19.527758 1.600000 -39.849998
v -19.299999 1.600000 -39.000000
v -19.357925 1.600000 -38.560009
v -19.357925 1.600000 -39.439991
v -19.527758 1.600000 -38.150002
v -19.797918 1.600000 -40.202080
v -19.797918 1.600000 -37.797920
v -21.000000 1.600000 -37.299999
v -21.000000 1.600000 -40.700001
v -23.755203 6.600000 -40.379738
v -21.684677 6.600000 -35.990139
v -21.802340 6.600000 -36.005630
v -23.994370 6.600000 -39.802338
v -24.100000 6.600000 -39.000000
v -23.684679 6.600000 -37.450001
v -23.994370 6.600000 -38.197662
v -23.192032 6.600000 -36.807968
v -22.549999 6.600000 -36.315323
v -21.000000 6.600000 -35.900002
v -20.197660 6.600000 -36.005630
v -18.807968 6.600000 -36.807968
v -19.450001 6.600000 -36.315323
v -18.315321 6.600000 -37.450001
v -18.005630 6.600000 -38.197662
v -17.900000 6.600000 -39.000000
v -18.005630 6.600000 -39.802338
v -18.315321 6.600000 -40.549999
v -23.684679 6.600000 -40.549999
v -21.000000 6.600000 -42.099998
v -23.192032 6.600000 -41.192032
v -21.802340 6.600000 -41.994370
v -22.549999 6.600000 -41.684677
v -18.807968 6.600000 -41.192032
v -19.450001 6.600000 -41.684677
v -20.197660 6.600000 -41.994370
v -21.000000 3.500000 -40.700001
v -20.560007 3.500000 -40.642075
v -20.150000 3.500000 -40.472244
v -19.797918 3.500000 -40.202080
v -19.527758 3.500000 -39.849998
v -19.357925 3.500000 -39.439991
v -19.299999 3.500000 -39.000000
v -19.357925 3.500000 -38.560009
v -19.527758 3.500000 -38.150002
v -19.797918 3.500000 -37.797920
v -20.150000 3.500000 -37.527756
v -20.560007 3.500000 -37.357925
v -21.000000 3.500000 -37.299999
v -21.439993 3.500000 -37.357925
v -21.850000 3.500000 -37.527756
v -22.202082 3.500000 -37.797920
v -22.472242 3.500000 -38.150002
v -22.642075 3.500000 -38.560009
v -22.700001 3.500000 -39.000000
v -22.642075 3.500000 -39.439991
v -22.472242 3.500000 -39.849998
v -22.202082 3.500000 -40.202080
v -21.850000 3.500000 -40.472244
v -21.439993 3.500000 -40.642075
v 19.336926 1.600000 -39.280483
v 22.495764 1.600000 -39.793213
v 19.299999 1.600000 -39.000000
v 19.527758 1.600000 -38.150002
v 19.357925 1.600000 -38.560009
v 20.150000 1.600000 -37.527756
v 21.000000 1.600000 -37.299999
v 20.560007 1.600000 -37.357925
v 19.797918 1.600000 -37.797920
v 21.850000 1.600000 -37.527756
v 22.202082 1.600000 -37.797920
v 22.700001 1.600000 -39.000000
v 22.642075 1.600000 -38.560009
v 22.642075 1.600000 -39.439991
v 21.439993 1.600000 -37.357925
v 22.472242 1.600000 -38.150002
v 19.357925 1.600000 -39.439991
v 22.472242 1.600000 -39.849998
v 22.202082 1.600000 -40.202080
v 19.527758 1.600000 -39.849998
v 20.150000 1.600000 -40.472244
v 19.797918 1.600000 -40.202080
v 21.000000 1.600000 -40.700001
v 21.850000 1.600000 -40.472244
v 21.439993 1.600000 -40.642075
v 20.560007 1.600000 -40.642075
v 17.906282 6.600000 -38.952278
v 18.005630 6.600000 -38.197662
v 21.684677 6.600000 -35.990139
v 18.315321 6.600000 -37.450001
v 19.450001 6.600000 -36.315323
v 18.807968 6.600000 -36.807968
v 21.000000 6.600000 -35.900002
v 20.197660 6.600000 -36.005630
v 21.802340 6.600000 -36.005630
v 17.900000 6.600000 -39.000000
v 18.005630 6.600000 -39.802338
v 18.315321 6.600000 -40.549999
v 18.807968 6.600000 -41.192032
v 19.450001 6.600000 -41.684677
v 20.197660 6.600000 -41.994370
v 21.000000 6.600000 -42.099998
v 22.677788 6.600000 -36.413380
v 22.549999 6.600000 -36.315323
v 23.192032 6.600000 -41.192032
v 23.240700 6.600000 -41.128605
v 21.802340 6.600000 -41.994370
v 22.549999 6.600000 -41.684677
v 23.192032 6.600000 -36.807968
v 23.684679 6.600000 -37.450001
v 24.100000 6.600000 -39.000000
v 23.994370 6.600000 -38.197662
v 23.994370 6.600000 -39.802338
v 23.684679 6.600000 -40.549999
v 21.000000 3.500000 -40.700001
v 21.439993 3.500000 -40.642075
v 21.850000 3.500000 -40.472244
v 22.202082 3.500000 -40.202080
v 22.472242 3.500000 -39.849998
v 22.642075 3.500000 -39.439991
v 22.700001 3.500000 -39.000000
v 22.642075 3.500000 -38.560009
v 22.472242 3.500000 -38.150002
v 22.202082 3.500000 -37.797920
v 21.850000 3.500000 -37.527756
v 21.439993 3.500000 -37.357925
v 21.000000 3.500000 -37.299999
v 20.560007 3.500000 -37.357925
v 20.150000 3.500000 -37.527756
v 19.797918 3.500000 -37.797920
v 19.527758 3.500000 -38.150002
v 19.357925 3.500000 -38.560009
v 19.299999 3.500000 -39.000000
v 19.357925 3.500000 -39.439991
v 19.527758 3.500000 -39.849998
v 19.797918 3.500000 -40.202080
v 20.150000 3.500000 -40.472244
v 20.560007 3.500000 -40.642075
v -22.642075 1.600000 39.439991
v -22.700001 1.600000 39.000000
v -22.472242 1.600000 38.150002
v -22.472242 1.600000 39.849998
v -22.642075 1.600000 38.560009
v -22.202082 1.600000 40.202080
v -21.439993 1.600000 40.642075
v -21.439993 1.600000 37.357925
v -21.850000 1.600000 40.472244
v -21.850000 1.600000 37.527756
v -22.202082 1.600000 37.797920
v -20.150000 1.600000 40.472244
v -20.150000 1.600000 37.527756
v -20.560007 1.600000 40.642075
v -20.560007 1.600000 37.357925
v -19.527758 1.600000 38.150002
v -19.299999 1.600000 39.000000
v -19.357925 1.600000 39.439991
v -19.357925 1.600000 38.560009
v -19.527758 1.600000 39.849998
v -19.797918 1.600000 37.797920
v -19.797918 1.600000 40.202080
v -21.000000 1.600000 40.700001
v -21.000000 1.600000 37.299999
v -24.100000 6.600000 39.000000
v -24.084488 6.600000 39.117828
v -23.994370 6.600000 38.197662
v -23.684679 6.600000 37.450001
v -23.192032 6.600000 36.807968
v -22.549999 6.600000 36.315323
v -21.802340 6.600000 36.005630
v -21.000000 6.600000 35.900002
v -19.450001 6.600000 36.315323
v -20.197660 6.600000 36.005630
v -18.807968 6.600000 36.807968
v -18.315321 6.600000 37.450001
v -18.005630 6.600000 38.197662
v -17.900000 6.600000 39.000000
v -18.005630 6.600000 39.802338
v -22.379738 6.600000 41.755203
v -21.802340 6.600000 41.994370
v -21.000000 6.600000 42.099998
v -18.807968 6.600000 41.192032
v -19.450001 6.600000 41.684677
v -20.197660 6.600000 41.994370
v -18.315321 6.600000 40.549999
v -22.549999 6.600000 41.684677
v -23.994370 6.600000 39.802338
v -23.684679 6.600000 40.549999
v -23.192032 6.600000 41.192032
v -21.000000 3.500000 37.299999
v -20.560007 3.500000 37.357925
v -20.150000 3.500000 37.527756
v -19.797918 3.500000 37.797920
v -19.527758 3.500000 38.150002
v -19.357925 3.500000 38.560009
v -19.299999 3.500000 39.000000
v -19.357925 3.500000 39.439991
v -19.527758 3.500000 39.849998
v -19.797918 3.500000 40.202080
v -20.150000 3.500000 40.472244
v -20.560007 3.500000 40.642075
v -21.000000 3.500000 40.700001
v -21.439993 3.500000 40.642075
v -21.850000 3.500000 40.472244
v -22.202082 3.500000 40.202080
v -22.472242 3.500000 39.849998
v -22.642075 3.500000 39.439991
v -22.700001 3.500000 39.000000
v -22.642075 3.500000 38.560009
v -22.472242 3.500000 38.150002
v -22.202082 3.500000 37.797920
v -21.850000 3.500000 37.527756
v -21.439993 3.500000 37.357925
v 19.299999 1.600000 39.000000
v 19.357925 1.600000 39.439991
v 19.357925 1.600000 38.560009
v 19.527758 1.600000 39.849998
v 19.527758 1.600000 38.150002
v 20.560007 1.600000 40.642075
v 20.560007 1.600000 37.357925
v 20.150000 1.600000 40.472244
v 20.150000 1.600000 37.527756
v 19.797918 1.600000 40.202080
v 19.797918 1.600000 37.797920
v 21.439993 1.600000 37.357925
v 21.850000 1.600000 40.472244
v 21.439993 1.600000 40.642075
v 21.850000 1.600000 37.527756
v 22.472242 1.600000 39.849998
v 22.472242 1.600000 38.150002
v 22.700001 1.600000 39.000000
v 22.642075 1.600000 39.439991
v 22.642075 1.600000 38.560009
v 22.202082 1.600000 40.202080
v 22.202082 1.600000 37.797920
v 21.000000 1.600000 37.299999
v 21.000000 1.600000 40.700001
v 23.755203 6.600000 40.379738
v 23.684679 6.600000 40.549999
v 21.000000 6.600000 42.099998
v 20.197660 6.600000 41.994370
v 21.802340 6.600000 41.994370
v 19.450001 6.600000 41.684677
v 18.807968 6.600000 41.192032
v 23.192032 6.600000 41.192032
v 22.549999 6.600000 41.684677
v 18.315321 6.600000 40.549999
v 18.005630 6.600000 39.802338
v 17.900000 6.600000 39.000000
v 18.005630 6.600000 38.197662
v 21.000000 6.600000 35.900002
v 21.162119 6.600000 35.921345
v 18.315321 6.600000 37.450001
v 20.197660 6.600000 36.005630
v 18.807968 6.600000 36.807968
v 19.450001 6.600000 36.315323
v 21.802340 6.600000 36.005630
v 22.549999 6.600000 36.315323
v 23.684679 6.600000 37.450001
v 23.192032 6.600000 36.807968
v 23.994370 6.600000 39.802338
v 24.100000 6.600000 39.000000
v 23.994370 6.600000 38.197662
v 21.000000 3.500000 37.299999
v 21.439993 3.500000 37.357925
v 21.850000 3.500000 37.527756
v 22.202082 3.500000 37.797920
v 22.472242 3.500000 38.150002
v 22.642075 3.500000 38.560009
v 22.700001 3.500000 39.000000
v 22.642075 3.500000 39.439991
v 22.472242 3.500000 39.849998
v 22.202082 3.500000 40.202080
v 21.850000 3.500000 40.472244
v 21.439993 3.500000 40.642075
v 21.000000 3.500000 40.700001
v 20.560007 3.500000 40.642075
v 20.150000 3.500000 40.472244
v 19.797918 3.500000 40.202080
v 19.527758 3.500000 39.849998
v 19.357925 3.500000 39.439991
v 19.299999 3.500000 39.000000
v 19.357925 3.500000 38.560009
v 19.527758 3.500000 38.150002
v 19.797918 3.500000 37.797920
v 20.150000 3.500000 37.527756
v 20.560007 3.500000 37.357925
vn -0.0000 -1.0000 -0.0000
vn -0.0000 1.0000 -0.0000
vn 0.0980 -0.0000 0.9952
vn -0.6344 -0.0000 -0.7730
vn 0.2903 -0.0000 0.9569
vn -0.7730 -0.0000 -0.6344
vn 1.0000 -0.0000 0.0014
vn 0.4714 -0.0000 0.8819
vn -0.8819 -0.0000 -0.4714
vn 0.9952 -0.0000 -0.0980
vn 0.6344 -0.0000 0.7730
vn -0.9569 -0.0000 -0.2903
vn 0.9569 -0.0000 -0.2903
vn 0.7730 -0.0000 0.6344
vn -1.0000 -0.0000 -0.0014
vn 0.8819 -0.0000 -0.4714
vn 0.8819 -0.0000 0.4714
vn -0.9952 -0.0000 0.0980
vn 0.7730 -0.0000 -0.6344
vn 0.9569 -0.0000 0.2903
vn -0.9569 -0.0000 0.2903
vn 0.6344 -0.0000 -0.7730
vn -0.8819 -0.0000 0.4714
vn 0.4714 -0.0000 -0.8819
vn -0.7730 -0.0000 0.6344
vn 0.2903 -0.0000 -0.9569
vn -0.6344 -0.0000 0.7730
vn 0.0026 -0.0000 -1.0000
vn -0.4714 -0.0000 0.8819
vn -0.0980 -0.0000 -0.9952
vn -0.2903 -0.0000 0.9569
vn -0.2903 -0.0000 -0.9569
vn -0.0026 -0.0000 1.0000
vn -0.4714 -0.0000 -0.8819
vn 1.0000 -0.0000 -0.0000
vn -0.0000 -0.0000 1.0000
vn -1.0000 -0.0000 -0.0000
vn -0.0000 -0.0000 -1.0000
vn -0.1305 -0.0000 0.9914
vn -0.3827 -0.0000 0.9239
vn -0.6088 -0.0000 0.7933
vn -0.7934 -0.0000 0.6088
vn -0.9239 -0.0000 0.3827
vn -0.9914 -0.0000 0.1305
vn -0.9914 -0.0000 -0.1305
vn -0.9239 -0.0000 -0.3827
vn -0.7934 -0.0000 -0.6088
vn -0.6088 -0.0000 -0.7933
vn -0.3827 -0.0000 -0.9239
vn -0.1305 -0.0000 -0.9914
vn 0.1305 -0.0000 -0.9914
vn 0.3827 -0.0000 -0.9239
vn 0.6088 -0.0000 -0.7933
vn 0.7934 -0.0000 -0.6088
vn 0.9239 -0.0000 -0.3827
vn 0.9914 -0.0000 -0.1305
vn 0.9914 -0.0000 0.1305
vn 0.9239 -0.0000 0.3827
vn 0.7934 -0.0000 0.6088
vn 0.6088 -0.0000 0.7933
vn 0.3827 -0.0000 0.9239
vn 0.1305 -0.0000 0.9914
vn -0.6088 -0.0000 0.7934
vn -0.6088 -0.0000 -0.7934
vn 0.6088 -0.0000 -0.7934
vn 0.6088 -0.0000 0.7934
vt 0.000000 0.000000
vt 0.377841 0.250000
vt 0.625000 0.250000
vt 0.625000 0.000000
vt 0.377841 0.000000
vt 0.377841 0.500000
vt 0.625000 0.500000
vt 0.625000 0.750000
vt 0.377841 0.750000
vt 0.625000 1.000000
vt 0.377841 1.000000
vt 0.640502 0.720893
vt 0.640502 0.508393
vt 0.875000 0.750000
vt 0.875000 0.500000
vt 0.859498 0.508393
vt 0.859498 0.720893
vt 0.539583 0.250000
vt 0.566667 0.250000
vt 0.566667 0.000000
vt 0.539583 0.000000
vt 0.539583 0.500000
vt 0.566667 0.500000
vt 0.566667 0.750000
vt 0.539583 0.750000
vt 0.566667 1.000000
vt 0.539583 1.000000
vt 1.000000 0.912500
vt 1.000000 0.600000
vt 0.958333 0.600000
vt 0.958333 0.912500
vt 0.916667 0.600000
vt 0.916667 0.912500
vt 0.875000 0.600000
vt 0.875000 0.912500
vt 0.833333 0.600000
vt 0.833333 0.912500
vt 0.791667 0.600000
vt 0.791667 0.912500
vt 0.750000 0.600000
vt 0.750000 0.912500
vt 0.708333 0.600000
vt 0.708333 0.912500
vt 0.666667 0.600000
vt 0.666667 0.912500
vt 0.625000 0.600000
vt 0.625000 0.912500
vt 0.583333 0.600000
vt 0.583333 0.912500
vt 0.541666 0.600000
vt 0.541666 0.912500
vt 0.500000 0.600000
vt 0.500000 0.912500
vt 0.458333 0.600000
vt 0.458333 0.912500
vt 0.416667 0.600000
vt 0.416667 0.912500
vt 0.375000 0.600000
vt 0.375000 0.912500
vt 0.333333 0.600000
vt 0.333333 0.912500
vt 0.291667 0.600000
vt 0.291667 0.912500
vt 0.250000 0.600000
vt 0.250000 0.912500
vt 0.208333 0.600000
vt 0.208333 0.912500
vt 0.166666 0.600000
vt 0.166666 0.912500
vt 0.125000 0.600000
vt 0.125000 0.912500
vt 0.083333 0.600000
vt 0.083333 0.912500
vt 0.041666 0.600000
vt 0.041666 0.912500
vt -0.000000 0.600000
vt -0.000000 0.912500
vt 1.000000 0.718750
vt 0.958333 0.718750
vt 0.916667 0.718750
vt 0.875000 0.718750
vt 0.833333 0.718750
vt 0.791667 0.600000
vt 0.791667 0.718750
vt 0.750000 0.718750
vt 0.708333 0.600000
vt 0.708333 0.718750
vt 0.666667 0.600000
vt 0.666667 0.718750
vt 0.625000 0.718750
vt 0.583333 0.718750
vt 0.541666 0.718750
vt 0.500000 0.600000
vt 0.500000 0.718750
vt 0.458333 0.718750
vt 0.416666 0.600000
vt 0.416666 0.718750
vt 0.375000 0.718750
vt 0.333333 0.718750
vt 0.291667 0.718750
vt 0.250000 0.718750
vt 0.208333 0.718750
vt 0.166666 0.600000
vt 0.166666 0.718750
vt 0.125000 0.718750
vt 0.083333 0.718750
vt 0.041666 0.718750
vt -0.000000 0.600000
vt -0.000000 0.718750
vt 1.000000 0.810000
vt 1.000000 0.500000
vt 0.958333 0.500000
vt 0.958333 0.810000
vt 0.916667 0.500000
vt 0.916667 0.810000
vt 0.875000 0.500000
vt 0.875000 0.810000
vt 0.833333 0.500000
vt 0.833333 0.810000
vt 0.791667 0.500000
vt 0.791667 0.810000
vt 0.750000 0.500000
vt 0.750000 0.810000
vt 0.708333 0.500000
vt 0.708333 0.810000
vt 0.666667 0.500000
vt 0.666667 0.810000
vt 0.625000 0.500000
vt 0.625000 0.810000
vt 0.583333 0.500000
vt 0.583333 0.810000
vt 0.541666 0.500000
vt 0.541666 0.810000
vt 0.500000 0.500000
vt 0.500000 0.810000
vt 0.464444 0.810000
vt 0.458333 0.500000
vt 0.458333 0.810000
vt 0.416666 0.500000
vt 0.416666 0.810000
vt 0.375000 0.500000
vt 0.375000 0.810000
vt 0.333333 0.500000
vt 0.333333 0.810000
vt 0.291667 0.500000
vt 0.291667 0.810000
vt 0.250000 0.500000
vt 0.250000 0.810000
vt 0.208333 0.500000
vt 0.208333 0.810000
vt 0.176155 0.810000
vt 0.166666 0.500000
vt 0.166666 0.810000
vt 0.125000 0.500000
vt 0.125000 0.810000
vt 0.083333 0.500000
vt 0.083333 0.810000
vt 0.041666 0.500000
vt 0.041666 0.810000
vt -0.000000 0.500000
vt -0.000000 0.810000
vt 0.618387 0.250000
vt 0.622872 0.284064
vt 0.518178 0.312117
vt 0.510000 0.250000
vt 0.518178 0.187883
vt 0.542154 0.130000
vt 0.580294 0.080294
vt 0.630000 0.042154
vt 0.687883 0.018178
vt 0.750000 0.010000
vt 0.812117 0.018178
vt 0.870000 0.042154
vt 0.919706 0.080294
vt 0.957846 0.130000
vt 0.981822 0.187883
vt 0.877128 0.215936
vt 0.863980 0.184194
vt 0.843064 0.156936
vt 0.815806 0.136020
vt 0.784064 0.122872
vt 0.750000 0.118387
vt 0.715936 0.122872
vt 0.684193 0.136020
vt 0.656936 0.156936
vt 0.636020 0.184194
vt 0.622872 0.215936
vt 0.881613 0.250000
vt 0.990000 0.250000
vt 0.981822 0.312117
vt 0.957846 0.370000
vt 0.919706 0.419706
vt 0.870000 0.457846
vt 0.812117 0.481822
vt 0.750000 0.490000
vt 0.687883 0.481822
vt 0.630000 0.457846
vt 0.580294 0.419706
vt 0.542154 0.370000
vt 0.636020 0.315806
vt 0.656936 0.343064
vt 0.684194 0.363980
vt 0.715936 0.377128
vt 0.750000 0.381613
vt 0.784064 0.377128
vt 0.815807 0.363980
vt 0.843064 0.343064
vt 0.863980 0.315806
vt 0.877128 0.284064
vt 0.827562 0.600000
vt 0.250000 0.718750
vt 0.223438 0.600000
vt 0.166667 0.718750
vt 0.870884 0.810000
vt 0.591627 0.810000
vt 0.535556 0.810000
vt 0.252478 0.810000
vt 0.333333 0.600000
vt 0.125000 0.600000
vt 0.426155 0.810000
vt 0.256119 0.810000
vt 0.625000 0.600000
vt 0.991581 0.810000
vt 0.676155 0.810000
s 0
usemtl Mat_Case_SlateGrey
f 377/1/1 380/1/1 99/1/1 97/1/1 168/1/1 387/1/1 379/1/1 381/1/1 378/1/1
f 107/1/1 103/1/1 102/1/1 99/1/1 380/1/1 382/1/1 385/1/1 383/1/1 399/1/1 390/1/1 388/1/1 398/1/1 396/1/1 394/1/1 393/1/1 395/1/1 392/1/1 397/1/1 389/1/1 391/1/1 400/1/1 384/1/1 386/1/1 387/1/1 168/1/1 165/1/1 472/1/1 465/1/1 462/1/1 473/1/1 457/1/1 459/1/1 461/1/1 455/1/1 453/1/1 451/1/1 452/1/1 454/1/1 460/1/1 458/1/1 456/1/1 474/1/1 464/1/1 463/1/1 471/1/1 122/1/1 120/1/1 119/1/1 116/1/1 114/1/1 111/1/1 108/1/1
f 126/1/1 124/1/1 123/1/1 122/1/1 471/1/1 466/1/1 469/1/1 468/1/1 470/1/1 467/1/1 472/1/1 165/1/1 167/1/1 17/1/1 7/1/1
f 312/1/1 300/1/1 17/1/1 167/1/1 195/1/1 194/1/1 196/1/1 299/1/1 301/1/1 303/1/1 302/1/1 307/1/1 304/1/1 306/1/1 305/1/1 313/1/1 308/1/1 309/1/1 314/1/1 311/1/1 310/1/1
f 85/1/1 81/1/1 78/1/1 75/1/1 69/1/1 63/1/1 60/1/1 52/1/1 46/1/1 36/1/1 28/1/1 19/1/1 17/1/1 300/1/1 316/1/1 317/1/1 322/1/1 323/1/1 321/1/1 324/1/1 319/1/1 320/1/1 318/1/1 315/1/1 299/1/1 196/1/1 193/1/1 198/1/1 191/1/1 188/1/1 199/1/1 183/1/1 185/1/1 187/1/1 181/1/1 179/1/1 177/1/1 178/1/1 180/1/1 186/1/1 184/1/1 182/1/1 200/1/1 190/1/1 189/1/1 197/1/1 192/1/1 195/1/1 167/1/1 166/1/1 230/1/1 233/1/1 231/1/1 247/1/1 238/1/1 236/1/1 246/1/1 244/1/1 242/1/1 241/1/1 243/1/1 240/1/1 245/1/1 237/1/1 239/1/1 248/1/1 232/1/1 234/1/1 235/1/1 227/1/1 88/1/1
f 228/1/1 230/1/1 166/1/1 168/1/1 97/1/1 93/1/1 92/1/1 88/1/1 227/1/1 229/1/1 225/1/1 226/1/1
f 252/1/2 249/1/2 147/1/2 172/1/2 250/1/2 251/1/2 257/1/2 256/1/2 254/1/2 255/1/2 253/1/2
f 258/1/2 250/1/2 172/1/2 169/1/2 221/1/2 214/1/2 212/1/2 224/1/2 206/1/2 208/1/2 210/1/2 204/1/2 202/1/2 201/1/2 203/1/2 205/1/2 211/1/2 209/1/2 207/1/2 223/1/2 215/1/2 213/1/2 222/1/2 217/1/2 136/1/2 138/1/2 139/1/2 141/1/2 142/1/2 144/1/2 145/1/2 146/1/2 147/1/2 249/1/2 267/1/2 269/1/2 271/1/2 270/1/2 268/1/2 274/1/2 273/1/2 272/1/2 266/1/2 265/1/2 264/1/2 263/1/2 262/1/2 260/1/2 261/1/2 259/1/2
f 326/1/2 325/1/2 217/1/2 220/1/2 218/1/2 219/1/2 216/1/2 221/1/2 169/1/2 327/1/2 331/1/2 332/1/2 329/1/2 330/1/2 328/1/2
f 333/1/2 327/1/2 169/1/2 341/1/2 342/1/2
f 344/1/2 136/1/2 217/1/2 325/1/2 334/1/2 335/1/2 336/1/2 337/1/2 338/1/2 339/1/2 340/1/2 345/1/2 346/1/2 343/1/2
f 417/1/2 416/1/2 155/1/2 156/1/2 157/1/2 158/1/2 159/1/2 160/1/2 161/1/2 162/1/2 163/1/2 475/1/2 476/1/2 482/1/2 483/1/2 479/1/2 477/1/2 478/1/2 480/1/2 481/1/2 484/1/2 485/1/2 486/1/2 487/1/2 490/1/2 492/1/2 493/1/2 491/1/2 488/1/2 489/1/2 170/1/2 171/1/2 172/1/2 147/1/2 148/1/2 149/1/2 402/1/2 401/1/2 403/1/2 404/1/2 405/1/2 406/1/2 407/1/2 408/1/2 410/1/2 409/1/2 411/1/2 412/1/2 413/1/2 414/1/2 415/1/2 422/1/2 419/1/2 420/1/2 421/1/2 418/1/2
f 163/1/2 164/1/2 128/1/2 129/1/2 130/1/2 132/1/2 133/1/2 135/1/2 136/1/2 344/1/2 352/1/2 351/1/2 349/1/2 350/1/2 348/1/2 347/1/2 341/1/2 169/1/2 170/1/2 489/1/2 494/1/2 495/1/2 497/1/2 496/1/2 500/1/2 499/1/2 498/1/2 475/1/2
f 424/1/2 402/1/2 149/1/2 150/1/2 151/1/2 152/1/2 153/1/2 154/1/2 155/1/2 416/1/2 423/1/2 426/1/2 425/1/2
f 114/1/3 116/1/3 158/1/3 157/1/3
f 78/1/4 81/1/4 145/1/4 144/1/4
f 116/1/5 119/1/5 159/1/5 158/1/5
f 81/1/6 85/1/6 146/1/6 145/1/6
f 126/1/7 7/1/7 128/1/7 164/1/7
f 119/1/8 120/1/8 160/1/8 159/1/8
f 85/1/9 88/1/9 147/1/9 146/1/9
f 7/1/10 17/1/10 129/1/10 128/1/10
f 120/1/11 122/1/11 161/1/11 160/1/11
f 88/1/12 92/1/12 148/1/12 147/1/12
f 17/1/13 19/1/13 130/1/13 129/1/13
f 122/1/14 123/1/14 162/1/14 161/1/14
f 92/1/15 93/1/15 149/1/15 148/1/15
f 19/1/16 28/1/16 132/1/16 130/1/16
f 123/1/17 124/1/17 163/1/17 162/1/17
f 93/1/18 97/1/18 150/1/18 149/1/18
f 28/1/19 36/1/19 133/1/19 132/1/19
f 124/1/20 126/1/20 164/1/20 163/1/20
f 97/1/21 99/1/21 151/1/21 150/1/21
f 36/1/22 46/1/22 135/1/22 133/1/22
f 99/1/23 102/1/23 152/1/23 151/1/23
f 46/1/24 52/1/24 136/1/24 135/1/24
f 102/1/25 103/1/25 153/1/25 152/1/25
f 52/1/26 60/1/26 138/1/26 136/1/26
f 103/1/27 107/1/27 154/1/27 153/1/27
f 60/1/28 63/1/28 139/1/28 138/1/28
f 107/1/29 108/1/29 155/1/29 154/1/29
f 63/1/30 69/1/30 141/1/30 139/1/30
f 108/1/31 111/1/31 156/1/31 155/1/31
f 69/1/32 75/1/32 142/1/32 141/1/32
f 111/1/33 114/1/33 157/1/33 156/1/33
f 75/1/34 78/1/34 144/1/34 142/1/34
f 166/2/35 27/3/35 9/4/35 168/5/35
f 167/6/36 54/7/36 27/3/36 166/2/36
f 41/8/37 54/7/37 167/6/37 165/9/37
f 9/10/38 41/8/38 165/9/38 168/11/38
f 173/12/1 176/13/1 54/7/1 41/8/1 9/14/1 27/15/1 175/16/1 174/17/1
f 27/15/1 54/7/1 176/13/1 175/16/1
f 175/18/35 172/19/35 171/20/35 174/21/35
f 176/22/36 169/23/36 172/19/36 175/18/36
f 170/24/37 169/23/37 176/22/37 173/25/37
f 171/26/38 170/24/38 173/25/38 174/27/38
f 223/28/39 199/29/39 188/30/39 215/31/39
f 215/31/40 188/30/40 191/32/40 213/33/40
f 213/33/41 191/32/41 198/34/41 222/35/41
f 198/34/42 193/36/42 217/37/42 222/35/42
f 193/36/43 196/38/43 220/39/43 217/37/43
f 196/38/44 194/40/44 218/41/44 220/39/44
f 194/40/45 195/42/45 219/43/45 218/41/45
f 195/42/46 192/44/46 216/45/46 219/43/46
f 192/44/47 197/46/47 221/47/47 216/45/47
f 197/46/48 189/48/48 214/49/48 221/47/48
f 189/48/49 190/50/49 212/51/49 214/49/49
f 190/50/50 200/52/50 224/53/50 212/51/50
f 200/52/51 182/54/51 206/55/51 224/53/51
f 182/54/52 184/56/52 208/57/52 206/55/52
f 184/56/53 186/58/53 210/59/53 208/57/53
f 210/59/54 186/58/54 180/60/54 204/61/54
f 204/61/55 180/60/55 178/62/55 202/63/55
f 202/63/56 178/62/56 177/64/56 201/65/56
f 201/65/57 177/64/57 179/66/57 203/67/57
f 203/67/58 179/66/58 181/68/58 205/69/58
f 205/69/59 181/68/59 187/70/59 211/71/59
f 211/71/60 187/70/60 185/72/60 209/73/60
f 209/73/61 185/72/61 183/74/61 207/75/61
f 207/75/62 183/74/62 199/76/62 223/77/62
f 275/78/39 248/29/39 239/30/39 276/79/39
f 276/79/40 239/30/40 237/32/40 277/80/40
f 277/80/41 237/32/41 245/34/41 278/81/41
f 245/34/42 240/36/42 279/82/42 278/81/42
f 240/36/43 243/83/43 280/84/43 279/82/43
f 243/83/44 241/40/44 281/85/44 280/84/44
f 241/40/45 242/86/45 282/87/45 281/85/45
f 242/86/46 244/88/46 283/89/46 282/87/46
f 244/88/47 246/46/47 284/90/47 283/89/47
f 246/46/48 236/48/48 285/91/48 284/90/48
f 236/48/49 238/50/49 286/92/49 285/91/49
f 238/50/50 247/93/50 287/94/50 286/92/50
f 247/93/51 231/54/51 288/95/51 287/94/51
f 231/54/52 233/96/52 289/97/52 288/95/52
f 233/96/53 230/58/53 290/98/53 289/97/53
f 290/98/54 230/58/54 228/60/54 291/99/54
f 291/99/55 228/60/55 226/62/55 292/100/55
f 292/100/56 226/62/56 225/64/56 293/101/56
f 293/101/57 225/64/57 229/66/57 294/102/57
f 294/102/58 229/66/58 227/103/58 295/104/58
f 295/104/59 227/103/59 235/70/59 296/105/59
f 296/105/60 235/70/60 234/72/60 297/106/60
f 297/106/61 234/72/61 232/74/61 298/107/61
f 298/107/62 232/74/62 248/108/62 275/109/62
f 268/110/39 2/111/39 14/112/39 274/113/39
f 274/113/40 14/112/40 22/114/40 273/115/40
f 273/115/63 22/114/63 33/116/63 272/117/63
f 33/116/42 44/118/42 266/119/42 272/117/42
f 44/118/43 57/120/43 265/121/43 266/119/43
f 57/120/44 68/122/44 264/123/44 265/121/44
f 68/122/45 73/124/45 263/125/45 264/123/45
f 263/125/46 73/124/46 82/126/46 262/127/46
f 262/127/47 82/126/47 87/128/47 260/129/47
f 87/128/64 96/130/64 261/131/64 260/129/64
f 96/130/49 101/132/49 259/133/49 261/131/49
f 101/132/50 105/134/50 258/135/50 259/133/50
f 250/136/51 258/135/51 105/134/51 110/137/51 251/138/51
f 251/138/52 110/137/52 113/139/52 257/140/52
f 113/139/65 117/141/65 256/142/65 257/140/65
f 256/142/54 117/141/54 121/143/54 254/144/54
f 254/144/55 121/143/55 125/145/55 255/146/55
f 255/146/56 125/145/56 127/147/56 253/148/56
f 253/148/57 127/147/57 131/149/57 252/150/57
f 249/151/58 252/150/58 131/149/58 134/152/58 267/153/58
f 267/153/59 134/152/59 137/154/59 269/155/59
f 269/155/66 137/154/66 140/156/66 271/157/66
f 271/157/61 140/156/61 143/158/61 270/159/61
f 270/159/62 143/158/62 2/160/62 268/161/62
f 293/162/2 294/163/2 131/164/2 127/165/2 125/166/2 121/167/2 117/168/2 113/169/2 110/170/2 105/171/2 101/172/2 96/173/2 87/174/2 82/175/2 73/176/2 282/177/2 283/178/2 284/179/2 285/180/2 286/181/2 287/182/2 288/183/2 289/184/2 290/185/2 291/186/2 292/187/2
f 281/188/2 282/177/2 73/176/2 68/189/2 57/190/2 44/191/2 33/192/2 22/193/2 14/194/2 2/195/2 143/196/2 140/197/2 137/198/2 134/199/2 131/164/2 294/163/2 295/200/2 296/201/2 297/202/2 298/203/2 275/204/2 276/205/2 277/206/2 278/207/2 279/208/2 280/209/2
f 353/78/39 321/29/39 323/30/39 354/79/39
f 354/79/40 323/30/40 322/32/40 355/80/40
f 355/80/41 322/32/41 317/34/41 356/81/41
f 317/34/42 316/36/42 357/82/42 356/81/42
f 300/210/43 312/83/43 358/84/43 357/82/43 316/36/43
f 312/83/44 310/40/44 359/85/44 358/84/44
f 310/40/45 311/86/45 360/87/45 359/85/45
f 311/86/46 314/88/46 361/89/46 360/87/46
f 314/88/47 309/46/47 362/90/47 361/89/47
f 309/46/48 308/48/48 363/91/48 362/90/48
f 308/48/49 313/50/49 364/92/49 363/91/49
f 313/50/50 305/93/50 365/94/50 364/92/50
f 305/93/51 306/54/51 366/95/51 365/94/51
f 306/54/52 304/96/52 367/97/52 366/95/52
f 304/96/53 307/58/53 368/98/53 367/97/53
f 368/98/54 307/58/54 302/60/54 369/99/54
f 369/99/55 302/60/55 303/62/55 370/100/55
f 370/100/56 303/62/56 301/64/56 371/211/56
f 371/211/57 301/64/57 299/212/57 315/66/57 372/102/57
f 372/102/58 315/66/58 318/68/58 373/213/58
f 373/213/59 318/68/59 320/70/59 374/105/59
f 374/105/60 320/70/60 319/72/60 375/106/60
f 375/106/61 319/72/61 324/74/61 376/107/61
f 376/107/62 324/74/62 321/108/62 353/109/62
f 340/110/39 5/111/39 10/112/39 345/113/39
f 345/113/40 10/112/40 18/114/40 346/115/40
f 346/115/63 18/114/63 24/116/63 343/117/63
f 344/214/42 343/117/42 24/116/42 32/118/42 352/119/42
f 32/118/43 39/120/43 351/121/43 352/119/43
f 39/120/44 45/122/44 349/123/44 351/121/44
f 45/122/45 49/124/45 350/125/45 349/123/45
f 49/124/46 59/126/46 348/127/46 350/125/46
f 59/126/47 65/128/47 347/129/47 348/127/47
f 341/215/64 347/129/64 65/128/64 72/130/64 342/131/64
f 72/130/49 76/132/49 333/133/49 342/131/49
f 327/216/50 333/133/50 76/132/50 79/134/50 331/135/50
f 79/134/51 84/137/51 332/138/51 331/135/51
f 84/137/52 90/139/52 329/140/52 332/138/52
f 90/139/65 95/141/65 330/142/65 329/140/65
f 330/142/54 95/141/54 98/143/54 328/144/54
f 328/144/55 98/143/55 100/145/55 326/146/55
f 325/217/56 326/146/56 100/145/56 104/147/56 334/148/56
f 334/148/57 104/147/57 106/149/57 335/150/57
f 335/150/58 106/149/58 109/152/58 336/153/58
f 336/153/59 109/152/59 112/154/59 337/155/59
f 337/155/66 112/154/66 115/156/66 338/157/66
f 338/157/61 115/156/61 118/158/61 339/159/61
f 339/159/62 118/158/62 5/160/62 340/161/62
f 363/180/2 364/181/2 76/172/2 72/173/2 65/174/2 59/175/2 49/176/2 45/189/2 39/190/2 32/191/2 24/192/2 18/193/2 10/194/2 5/195/2 118/196/2 376/203/2 353/204/2 354/205/2 355/206/2 356/207/2 357/208/2 358/209/2 359/188/2 360/177/2 361/178/2 362/179/2
f 375/202/2 376/203/2 118/196/2 115/197/2 112/198/2 109/199/2 106/164/2 104/165/2 100/166/2 98/167/2 95/168/2 90/169/2 84/170/2 79/171/2 76/172/2 364/181/2 365/182/2 366/183/2 367/184/2 368/185/2 369/186/2 370/187/2 371/162/2 372/163/2 373/200/2 374/201/2
f 427/78/39 400/29/39 391/30/39 428/79/39
f 428/79/40 391/30/40 389/32/40 429/80/40
f 429/80/41 389/32/41 397/34/41 430/81/41
f 397/34/42 392/36/42 431/82/42 430/81/42
f 392/36/43 395/83/43 432/84/43 431/82/43
f 395/83/44 393/40/44 433/85/44 432/84/44
f 393/40/45 394/86/45 434/87/45 433/85/45
f 394/86/46 396/88/46 435/89/46 434/87/46
f 396/88/47 398/46/47 436/90/47 435/89/47
f 398/46/48 388/48/48 437/91/48 436/90/48
f 388/48/49 390/50/49 438/92/49 437/91/49
f 390/50/50 399/93/50 439/94/50 438/92/50
f 399/93/51 383/54/51 440/95/51 439/94/51
f 383/54/52 385/96/52 441/97/52 440/95/52
f 385/96/53 382/58/53 442/98/53 441/97/53
f 442/98/54 382/58/54 380/218/54 443/99/54
f 443/99/55 380/218/55 377/62/55 444/100/55
f 444/100/56 377/62/56 378/64/56 445/211/56
f 445/211/57 378/64/57 381/66/57 446/102/57
f 446/102/58 381/66/58 379/68/58 447/213/58
f 447/213/59 379/68/59 387/219/59 448/105/59
f 448/105/60 387/219/60 386/72/60 449/106/60
f 449/106/61 386/72/61 384/74/61 450/107/61
f 450/107/62 384/74/62 400/108/62 427/109/62
f 408/110/39 3/111/39 6/112/39 410/113/39
f 410/113/40 6/112/40 12/114/40 409/115/40
f 409/115/63 12/114/63 15/116/63 411/117/63
f 411/117/42 15/116/42 21/118/42 412/119/42
f 21/118/43 26/120/43 413/121/43 412/119/43
f 26/120/44 30/122/44 414/123/44 413/121/44
f 30/122/45 34/124/45 415/125/45 414/123/45
f 34/124/46 37/126/46 422/127/46 415/125/46
f 422/127/47 37/126/47 42/128/47 419/129/47
f 42/128/64 48/130/64 420/131/64 419/129/64
f 48/130/49 51/132/49 421/133/49 420/131/49
f 51/132/50 55/134/50 418/135/50 421/133/50
f 55/134/51 61/137/51 417/138/51 418/135/51
f 416/220/52 417/138/52 61/137/52 66/139/52 423/140/52
f 423/140/65 66/139/65 71/141/65 426/142/65
f 426/142/54 71/141/54 74/143/54 425/144/54
f 425/144/55 74/143/55 77/145/55 424/146/55
f 402/221/56 424/146/56 77/145/56 80/147/56 401/148/56
f 401/148/57 80/147/57 83/149/57 403/150/57
f 403/150/58 83/149/58 86/152/58 404/153/58
f 404/153/59 86/152/59 89/154/59 405/155/59
f 405/155/66 89/154/66 91/156/66 406/157/66
f 406/157/61 91/156/61 94/158/61 407/159/61
f 407/159/62 94/158/62 3/160/62 408/161/62
f 445/162/2 446/163/2 83/164/2 80/165/2 77/166/2 74/167/2 71/168/2 66/169/2 61/170/2 55/171/2 51/172/2 48/173/2 42/174/2 37/175/2 34/176/2 434/177/2 435/178/2 436/179/2 437/180/2 438/181/2 439/182/2 440/183/2 441/184/2 442/185/2 443/186/2 444/187/2
f 433/188/2 434/177/2 34/176/2 30/189/2 26/190/2 21/191/2 15/192/2 12/193/2 6/194/2 3/195/2 94/196/2 91/197/2 89/198/2 86/199/2 83/164/2 446/163/2 447/200/2 448/201/2 449/202/2 450/203/2 427/204/2 428/205/2 429/206/2 430/207/2 431/208/2 432/209/2
f 501/78/39 473/29/39 462/30/39 502/79/39
f 502/79/40 462/30/40 465/32/40 503/80/40
f 503/80/41 465/32/41 472/34/41 504/81/41
f 472/34/42 467/36/42 505/82/42 504/81/42
f 467/36/43 470/83/43 506/84/43 505/82/43
f 470/83/44 468/40/44 507/85/44 506/84/44
f 468/40/45 469/86/45 508/87/45 507/85/45
f 469/86/46 466/88/46 509/89/46 508/87/46
f 466/88/47 471/222/47 510/90/47 509/89/47
f 471/222/48 463/48/48 511/91/48 510/90/48
f 463/48/49 464/50/49 512/92/49 511/91/49
f 464/50/50 474/93/50 513/94/50 512/92/50
f 474/93/51 456/54/51 514/95/51 513/94/51
f 456/54/52 458/96/52 515/97/52 514/95/52
f 458/96/53 460/58/53 516/98/53 515/97/53
f 516/98/54 460/58/54 454/60/54 517/99/54
f 517/99/55 454/60/55 452/62/55 518/100/55
f 518/100/56 452/62/56 451/64/56 519/101/56
f 519/101/57 451/64/57 453/66/57 520/102/57
f 520/102/58 453/66/58 455/68/58 521/213/58
f 521/213/59 455/68/59 461/70/59 522/105/59
f 522/105/60 461/70/60 459/72/60 523/106/60
f 523/106/61 459/72/61 457/74/61 524/107/61
f 524/107/62 457/74/62 473/108/62 501/109/62
f 488/110/39 1/111/39 4/112/39 494/113/39 489/223/39
f 494/113/40 4/112/40 8/114/40 495/115/40
f 495/115/63 8/114/63 11/116/63 497/117/63
f 11/116/42 13/118/42 496/119/42 497/117/42
f 13/118/43 16/120/43 500/121/43 496/119/43
f 16/120/44 20/122/44 499/123/44 500/121/44
f 20/122/45 23/124/45 498/125/45 499/123/45
f 498/125/46 23/124/46 25/126/46 476/127/46 475/224/46
f 476/127/47 25/126/47 29/128/47 482/129/47
f 29/128/64 31/130/64 483/131/64 482/129/64
f 483/131/49 31/130/49 35/132/49 479/133/49
f 35/132/50 38/134/50 477/135/50 479/133/50
f 38/134/51 40/137/51 478/138/51 477/135/51
f 40/137/52 43/139/52 480/140/52 478/138/52
f 43/139/65 47/141/65 481/142/65 480/140/65
f 481/142/54 47/141/54 50/143/54 484/144/54
f 484/144/55 50/143/55 53/145/55 485/146/55
f 485/146/56 53/145/56 56/147/56 486/148/56
f 486/148/57 56/147/57 58/149/57 487/150/57
f 487/150/58 58/149/58 62/152/58 490/153/58
f 490/153/59 62/152/59 64/154/59 492/155/59
f 492/155/66 64/154/66 67/156/66 493/157/66
f 493/157/61 67/156/61 70/158/61 491/159/61
f 491/159/62 70/158/62 1/160/62 488/161/62
f 520/163/2 58/164/2 56/165/2 53/166/2 50/167/2 47/168/2 43/169/2 40/170/2 38/171/2 35/172/2 31/173/2 29/174/2 25/175/2 23/176/2 508/177/2 509/178/2 510/179/2 511/180/2 512/181/2 513/182/2 514/183/2 515/184/2 516/185/2 517/186/2 518/187/2 519/162/2
f 23/176/2 20/189/2 16/190/2 13/191/2 11/192/2 8/193/2 4/194/2 1/195/2 70/196/2 67/197/2 64/198/2 62/199/2 58/164/2 520/163/2 521/200/2 522/201/2 523/202/2 524/203/2 501/204/2 502/205/2 503/206/2 504/207/2 505/208/2 506/209/2 507/188/2 508/177/2
