# Blender 5.2.1 LTS
# www.blender.org
mtllib Case_Bottom.mtl
o Case_Bottom
v 25.500000 -4.000000 -12.969999
v 21.000000 -6.000000 37.750000
v 21.000000 -5.000000 35.750000
v 26.794096 -4.000000 -12.799629
v -21.000000 -6.000000 37.750000
v -21.000000 -5.000000 35.750000
v 21.323524 -6.000000 37.792591
v 21.000000 0.000000 35.750000
v 21.000000 -6.000000 -40.250000
v 21.625000 -6.000000 37.917469
v 21.841162 -5.000000 35.860741
v 21.841162 0.000000 35.860741
v 21.883884 -6.000000 38.116116
v -20.676476 -6.000000 37.792591
v -21.000000 0.000000 35.750000
v 22.082531 -6.000000 38.375000
v 22.625000 -5.000000 36.185417
v 22.625000 0.000000 36.185417
v 22.207407 -6.000000 38.676476
v -21.000000 -6.000000 -40.250000
v 22.250000 -6.000000 39.000000
v 23.298098 -5.000000 36.701904
v -20.375000 -6.000000 37.917469
v 21.000000 -5.000000 -42.250000
v 22.207407 -6.000000 39.323524
v 26.794096 -4.000000 -3.140371
v 23.298098 0.000000 36.701904
v 22.082531 -6.000000 39.625000
v 25.500000 -4.000000 -2.970000
v -20.158838 -5.000000 35.860741
v 23.814583 -5.000000 37.375000
v 21.883884 -6.000000 39.883884
v 23.814583 0.000000 37.375000
v -20.116116 -6.000000 38.116116
v 21.625000 -6.000000 40.082531
v 24.139259 -5.000000 38.158836
v 21.323524 -6.000000 -40.207409
v 24.139259 0.000000 38.158836
v 21.323524 -6.000000 40.207409
v -20.158838 0.000000 35.860741
v 21.000000 -6.000000 40.250000
v -19.917469 -6.000000 38.375000
v 24.250000 -5.000000 39.000000
v 20.676476 -6.000000 40.207409
v 21.000000 0.000000 -42.250000
v 24.250000 0.000000 39.000000
v 20.375000 -6.000000 40.082531
v -19.375000 -5.000000 36.185417
v 24.139259 -5.000000 39.841164
v 24.139259 0.000000 39.841164
v 20.116116 -6.000000 39.883884
v 27.400000 -7.000000 -39.400002
v 23.814583 -5.000000 40.625000
v 19.917469 -6.000000 39.625000
v -19.792593 -6.000000 38.676476
v 19.792593 -6.000000 39.323524
v -19.375000 0.000000 36.185417
v 23.814583 0.000000 40.625000
v 23.298098 -5.000000 41.298096
v 19.750000 -6.000000 39.000000
v -18.701902 -5.000000 36.701904
v -19.750000 -6.000000 39.000000
v 19.792593 -6.000000 38.676476
v 23.298098 0.000000 41.298096
v 19.917469 -6.000000 38.375000
v 22.625000 -5.000000 41.814583
v 21.625000 -6.000000 -40.082531
v 20.116116 -6.000000 38.116116
v 22.625000 0.000000 41.814583
v -18.701902 0.000000 36.701904
v 20.375000 -6.000000 37.917469
v -19.792593 -6.000000 39.323524
v 21.841162 -5.000000 42.139259
v 20.676476 -6.000000 37.792591
v -21.000000 -5.000000 -42.250000
v 21.841162 0.000000 42.139259
v -19.917469 -6.000000 39.625000
v 21.000000 -5.000000 42.250000
v 21.841162 -5.000000 -42.139259
v 21.000000 0.000000 42.250000
v 20.158838 -5.000000 42.139259
v -18.185417 -5.000000 37.375000
v 20.158838 0.000000 42.139259
v 21.883884 -6.000000 -39.883884
v -20.116116 -6.000000 39.883884
v 19.375000 -5.000000 41.814583
v 19.375000 0.000000 41.814583
v -18.185417 0.000000 37.375000
v 21.841162 0.000000 -42.139259
v 18.701902 -5.000000 41.298096
v -20.375000 -6.000000 40.082531
v 18.701902 0.000000 41.298096
v 18.185417 -5.000000 40.625000
v -17.860741 -5.000000 38.158836
v -20.676476 -6.000000 40.207409
v 18.185417 0.000000 40.625000
v -25.400000 -5.250000 43.400002
v 17.860741 -5.000000 39.841164
v 17.860741 0.000000 39.841164
v -17.860741 0.000000 38.158836
v -21.000000 -6.000000 40.250000
v 17.750000 -5.000000 39.000000
v -17.750000 -5.000000 39.000000
v 17.750000 0.000000 39.000000
v 17.860741 -5.000000 38.158836
v 22.082531 -6.000000 -39.625000
v -21.323524 -6.000000 40.207409
v 17.860741 0.000000 38.158836
v 18.185417 -5.000000 37.375000
v -20.676476 -6.000000 -40.207409
v 18.185417 0.000000 37.375000
v -17.750000 0.000000 39.000000
v -17.860741 -5.000000 39.841164
v 18.701902 -5.000000 36.701904
v -21.625000 -6.000000 40.082531
v 18.701902 0.000000 36.701904
v 19.375000 -5.000000 36.185417
v 22.625000 -5.000000 -41.814583
v 19.375000 0.000000 36.185417
v -17.860741 0.000000 39.841164
v -21.883884 -6.000000 39.883884
v 20.158838 -5.000000 35.860741
v 20.158838 0.000000 35.860741
v 22.207407 -6.000000 -39.323524
v -22.082531 -6.000000 39.625000
v -21.000000 0.000000 -42.250000
v -18.185417 -5.000000 40.625000
v -18.185417 0.000000 40.625000
v -22.207407 -6.000000 39.323524
v 22.625000 0.000000 -41.814583
v 22.250000 -6.000000 -39.000000
v -22.250000 -6.000000 39.000000
v -18.701902 -5.000000 41.298096
v -22.207407 -6.000000 38.676476
v -20.375000 -6.000000 -40.082531
v -18.701902 0.000000 41.298096
v 23.298098 -5.000000 -41.298096
v -22.082531 -6.000000 38.375000
v -19.375000 -5.000000 41.814583
v -21.883884 -6.000000 38.116116
v -19.375000 0.000000 41.814583
v 27.284712 -7.000000 -40.570541
v 22.207407 -6.000000 -38.676476
v -21.625000 -6.000000 37.917469
v -20.158838 -5.000000 42.139259
v -21.323524 -6.000000 37.792591
v 23.298098 0.000000 -41.298096
v -20.158838 0.000000 42.139259
v 22.082531 -6.000000 -38.375000
v -21.000000 -5.000000 42.250000
v 23.814583 -5.000000 -40.625000
v -21.000000 0.000000 42.250000
v -21.841162 -5.000000 42.139259
v -20.158838 -5.000000 -42.139259
v 26.943277 -7.000000 -41.696102
v -21.841162 0.000000 42.139259
v 21.883884 -6.000000 -38.116116
v -22.625000 -5.000000 41.814583
v 23.814583 0.000000 -40.625000
v -22.625000 0.000000 41.814583
v 21.625000 -6.000000 -37.917469
v -23.298098 -5.000000 41.298096
v -23.298098 0.000000 41.298096
v 24.139259 -5.000000 -39.841164
v -23.814583 -5.000000 40.625000
v -20.116116 -6.000000 -39.883884
v 24.139259 0.000000 -39.841164
v -23.814583 0.000000 40.625000
v 21.323524 -6.000000 -37.792591
v -24.139259 -5.000000 39.841164
v -24.139259 0.000000 39.841164
v -20.158838 0.000000 -42.139259
v -24.250000 -5.000000 39.000000
v 21.000000 -6.000000 -37.750000
v 24.250000 -5.000000 -39.000000
v -24.250000 0.000000 39.000000
v -25.400000 -5.250000 -43.400002
v -24.139259 -5.000000 38.158836
v 20.676476 -6.000000 -37.792591
v -24.139259 0.000000 38.158836
v -23.814583 -5.000000 37.375000
v 24.250000 0.000000 -39.000000
v -19.917469 -6.000000 -39.625000
v -23.814583 0.000000 37.375000
v -23.298098 -5.000000 36.701904
v 24.139259 -5.000000 -38.158836
v -23.298098 0.000000 36.701904
v 20.375000 -6.000000 -37.917469
v -19.375000 -5.000000 -41.814583
v -22.625000 -5.000000 36.185417
v -22.625000 0.000000 36.185417
v 24.139259 0.000000 -38.158836
v -21.841162 -5.000000 35.860741
v 20.116116 -6.000000 -38.116116
v -19.792593 -6.000000 -39.323524
v -21.841162 0.000000 35.860741
v 23.814583 -5.000000 -37.375000
v 19.917469 -6.000000 -38.375000
v -19.375000 0.000000 -41.814583
v 19.792593 -6.000000 -38.676476
v 26.388817 -7.000000 -42.733421
v 23.814583 0.000000 -37.375000
v 23.298098 -5.000000 -36.701904
v 19.750000 -6.000000 -39.000000
v -18.701902 -5.000000 -41.298096
v 19.792593 -6.000000 -39.323524
v 23.298098 0.000000 -36.701904
v -19.750000 -6.000000 -39.000000
v 22.625000 -5.000000 -36.185417
v 19.917469 -6.000000 -39.625000
v 25.400000 -5.250000 43.400002
v 22.625000 0.000000 -36.185417
v 20.116116 -6.000000 -39.883884
v 25.642641 -7.000000 -43.642639
v 21.841162 -5.000000 -35.860741
v 20.375000 -6.000000 -40.082531
v -19.792593 -6.000000 -38.676476
v 21.841162 0.000000 -35.860741
v 20.676476 -6.000000 -40.207409
v -18.701902 0.000000 -41.298096
v -18.185417 -5.000000 -40.625000
v 21.000000 -5.000000 -35.750000
v -19.917469 -6.000000 -38.375000
v 21.000000 0.000000 -35.750000
v 20.158838 -5.000000 -35.860741
v 24.733421 -7.000000 -44.388817
v 20.158838 0.000000 -35.860741
v -18.185417 0.000000 -40.625000
v 19.375000 -5.000000 -36.185417
v -20.116116 -6.000000 -38.116116
v 19.375000 0.000000 -36.185417
v 23.696100 -7.000000 -44.943275
v 18.701902 -5.000000 -36.701904
v -20.375000 -6.000000 -37.917469
v -17.860741 -5.000000 -39.841164
v 18.701902 0.000000 -36.701904
v 25.400000 -5.250000 -43.400002
v 18.185417 -5.000000 -37.375000
v -20.676476 -6.000000 -37.792591
v 18.185417 0.000000 -37.375000
v 17.860741 -5.000000 -38.158836
v 22.570541 -7.000000 -45.284710
v 17.860741 0.000000 -38.158836
v -17.860741 0.000000 -39.841164
v 17.750000 -5.000000 -39.000000
v -21.400000 -7.000000 -45.400002
v -21.000000 -6.000000 -37.750000
v 17.750000 0.000000 -39.000000
v 17.860741 -5.000000 -39.841164
v -17.750000 -5.000000 -39.000000
v -21.323524 -6.000000 -37.792591
v 17.860741 0.000000 -39.841164
v -22.570541 -7.000000 -45.284710
v 18.185417 -5.000000 -40.625000
v -17.750000 0.000000 -39.000000
v 18.185417 0.000000 -40.625000
v -21.625000 -6.000000 -37.917469
v 18.701902 -5.000000 -41.298096
v -23.696100 -7.000000 -44.943275
v 18.701902 0.000000 -41.298096
v -17.860741 -5.000000 -38.158836
v 19.375000 -5.000000 -41.814583
v 19.375000 0.000000 -41.814583
v -21.883884 -6.000000 -38.116116
v -24.733421 -7.000000 -44.388817
v 20.158838 -5.000000 -42.139259
v 20.158838 0.000000 -42.139259
v -17.860741 0.000000 -38.158836
v -25.642641 -7.000000 -43.642639
v -22.082531 -6.000000 -38.375000
v -18.185417 -5.000000 -37.375000
v -22.207407 -6.000000 -38.676476
v -26.388817 -7.000000 -42.733421
v -18.185417 0.000000 -37.375000
v -22.250000 -6.000000 -39.000000
v -18.701902 -5.000000 -36.701904
v -26.943277 -7.000000 -41.696102
v -22.207407 -6.000000 -39.323524
v -18.701902 0.000000 -36.701904
v -27.284712 -7.000000 -40.570541
v -22.082531 -6.000000 -39.625000
v -27.400000 -7.000000 39.400002
v -19.375000 -5.000000 -36.185417
v -21.883884 -6.000000 -39.883884
v -27.284712 -7.000000 40.570541
v -19.375000 0.000000 -36.185417
v -26.943277 -7.000000 41.696102
v -21.625000 -6.000000 -40.082531
v -20.158838 -5.000000 -35.860741
v -21.323524 -6.000000 -40.207409
v -26.388817 -7.000000 42.733421
v -20.158838 0.000000 -35.860741
v -21.000000 -5.000000 -35.750000
v -25.642641 -7.000000 43.642639
v -21.000000 0.000000 -35.750000
v -24.733421 -7.000000 44.388817
v -23.696100 -7.000000 44.943275
v -21.841162 -5.000000 -35.860741
v -22.570541 -7.000000 45.284710
v -21.841162 0.000000 -35.860741
v 21.400000 -7.000000 45.400002
v -22.625000 -5.000000 -36.185417
v 22.570541 -7.000000 45.284710
v -22.625000 0.000000 -36.185417
v 23.696100 -7.000000 44.943275
v -23.298098 -5.000000 -36.701904
v 24.733421 -7.000000 44.388817
v -23.298098 0.000000 -36.701904
v 25.642641 -7.000000 43.642639
v -23.814583 -5.000000 -37.375000
v 26.388817 -7.000000 42.733421
v -23.814583 0.000000 -37.375000
v -24.139259 -5.000000 -38.158836
v 26.943277 -7.000000 41.696102
v -24.139259 0.000000 -38.158836
v 27.284712 -7.000000 40.570541
v -24.250000 -5.000000 -39.000000
v 27.400000 1.600000 -39.400002
v -24.250000 0.000000 -39.000000
v 27.284712 1.600000 -40.570541
v -24.139259 -5.000000 -39.841164
v 26.943277 1.600000 -41.696102
v -24.139259 0.000000 -39.841164
v 26.388817 1.600000 -42.733421
v 25.642641 1.600000 -43.642639
v -23.814583 -5.000000 -40.625000
v -23.814583 0.000000 -40.625000
v 24.733421 1.600000 -44.388817
v -23.298098 -5.000000 -41.298096
v 23.696100 1.600000 -44.943275
v -23.298098 0.000000 -41.298096
v 22.570541 1.600000 -45.284710
v -22.625000 -5.000000 -41.814583
v -21.400000 1.600000 -45.400002
v -22.625000 0.000000 -41.814583
v -22.570541 1.600000 -45.284710
v -23.696100 1.600000 -44.943275
v -21.841162 -5.000000 -42.139259
v -24.733421 1.600000 -44.388817
v -21.841162 0.000000 -42.139259
v -25.642641 1.600000 -43.642639
v -26.388817 1.600000 -42.733421
v -26.943277 1.600000 -41.696102
v -27.284712 1.600000 -40.570541
v -27.400000 1.600000 39.400002
v -27.284712 1.600000 40.570541
v -26.943277 1.600000 41.696102
v -26.388817 1.600000 42.733421
v -25.642641 1.600000 43.642639
v -24.733421 1.600000 44.388817
v -23.696100 1.600000 44.943275
v -22.570541 1.600000 45.284710
v 21.400000 1.600000 45.400002
v 22.570541 1.600000 45.284710
v 23.696100 1.600000 44.943275
v 24.733421 1.600000 44.388817
v 25.642641 1.600000 43.642639
v 26.388817 1.600000 42.733421
v 26.943277 1.600000 41.696102
v 27.284712 1.600000 40.570541
v 25.391209 1.600000 -43.400002
v 25.400000 1.600000 -43.400002
v -25.400000 1.600000 -43.400002
v -25.400000 1.600000 43.400002
v -25.391209 1.600000 43.400002
v 25.400000 1.600000 43.400002
v -22.250000 -5.250000 -39.000000
v -22.207407 -5.250000 -38.676476
v -22.207407 -5.250000 -39.323524
v -22.082531 -5.250000 -38.375000
v -22.082531 -5.250000 -39.625000
v -21.323524 -5.250000 -37.792591
v -21.323524 -5.250000 -40.207409
v -21.625000 -5.250000 -37.917469
v -21.625000 -5.250000 -40.082531
v -21.883884 -5.250000 -38.116116
v -21.883884 -5.250000 -39.883884
v -20.676476 -5.250000 -40.207409
v -20.375000 -5.250000 -37.917469
v -20.676476 -5.250000 -37.792591
v -20.375000 -5.250000 -40.082531
v -19.917469 -5.250000 -38.375000
v -19.917469 -5.250000 -39.625000
v -19.750000 -5.250000 -39.000000
v -19.792593 -5.250000 -38.676476
v -19.792593 -5.250000 -39.323524
v -20.116116 -5.250000 -38.116116
v -20.116116 -5.250000 -39.883884
v -21.000000 -5.250000 -37.750000
v -21.000000 -5.250000 -40.250000
v -22.250000 0.000000 -39.000000
v -22.207407 0.000000 -38.676476
v -22.207407 0.000000 -39.323524
v -22.082531 0.000000 -38.375000
v -22.082531 0.000000 -39.625000
v -21.883884 0.000000 -39.883884
v -21.323524 0.000000 -37.792591
v -21.323524 0.000000 -40.207409
v -21.625000 0.000000 -37.917469
v -21.625000 0.000000 -40.082531
v -21.883884 0.000000 -38.116116
v -20.375000 0.000000 -37.917469
v -20.375000 0.000000 -40.082531
v -20.676476 0.000000 -37.792591
v -20.676476 0.000000 -40.207409
v -19.917469 0.000000 -38.375000
v -19.750000 0.000000 -39.000000
v -19.792593 0.000000 -38.676476
v -19.792593 0.000000 -39.323524
v -19.917469 0.000000 -39.625000
v -20.116116 0.000000 -39.883884
v -20.116116 0.000000 -38.116116
v -21.000000 0.000000 -37.750000
v -21.000000 0.000000 -40.250000
v -22.250000 -5.000000 -39.000000
v -22.207407 -5.000000 -38.676476
v -22.082531 -5.000000 -39.625000
v -22.082531 -5.000000 -38.375000
v -22.207407 -5.000000 -39.323524
v -21.883884 -5.000000 -38.116116
v -21.323524 -5.000000 -37.792591
v -21.323524 -5.000000 -40.207409
v -21.625000 -5.000000 -37.917469
v -21.625000 -5.000000 -40.082531
v -21.883884 -5.000000 -39.883884
v -20.375000 -5.000000 -37.917469
v -20.375000 -5.000000 -40.082531
v -20.676476 -5.000000 -37.792591
v -20.676476 -5.000000 -40.207409
v -19.917469 -5.000000 -39.625000
v -19.750000 -5.000000 -39.000000
v -19.792593 -5.000000 -38.676476
v -19.792593 -5.000000 -39.323524
v -19.917469 -5.000000 -38.375000
v -20.116116 -5.000000 -39.883884
v -20.116116 -5.000000 -38.116116
v -21.000000 -5.000000 -37.750000
v -21.000000 -5.000000 -40.250000
v 19.750000 -5.250000 -39.000000
v 19.792593 -5.250000 -38.676476
v 19.792593 -5.250000 -39.323524
v 19.917469 -5.250000 -38.375000
v 19.917469 -5.250000 -39.625000
v 20.676476 -5.250000 -37.792591
v 20.676476 -5.250000 -40.207409
v 20.375000 -5.250000 -37.917469
v 20.375000 -5.250000 -40.082531
v 20.116116 -5.250000 -38.116116
v 20.116116 -5.250000 -39.883884
v 21.323524 -5.250000 -40.207409
v 21.625000 -5.250000 -37.917469
v 21.323524 -5.250000 -37.792591
v 21.625000 -5.250000 -40.082531
v 22.082531 -5.250000 -38.375000
v 22.082531 -5.250000 -39.625000
v 22.250000 -5.250000 -39.000000
v 22.207407 -5.250000 -38.676476
v 22.207407 -5.250000 -39.323524
v 21.883884 -5.250000 -38.116116
v 21.883884 -5.250000 -39.883884
v 21.000000 -5.250000 -40.250000
v 21.000000 -5.250000 -37.750000
v 19.750000 0.000000 -39.000000
v 19.792593 0.000000 -38.676476
v 19.792593 0.000000 -39.323524
v 19.917469 0.000000 -38.375000
v 19.917469 0.000000 -39.625000
v 20.116116 0.000000 -39.883884
v 20.676476 0.000000 -37.792591
v 20.676476 0.000000 -40.207409
v 20.375000 0.000000 -37.917469
v 20.375000 0.000000 -40.082531
v 20.116116 0.000000 -38.116116
v 21.625000 0.000000 -37.917469
v 21.625000 0.000000 -40.082531
v 21.323524 0.000000 -37.792591
v 21.323524 0.000000 -40.207409
v 22.082531 0.000000 -38.375000
v 22.250000 0.000000 -39.000000
v 22.207407 0.000000 -38.676476
v 22.207407 0.000000 -39.323524
v 22.082531 0.000000 -39.625000
v 21.883884 0.000000 -39.883884
v 21.883884 0.000000 -38.116116
v 21.000000 0.000000 -37.750000
v 21.000000 0.000000 -40.250000
v 19.750000 -5.000000 -39.000000
v 19.792593 -5.000000 -38.676476
v 19.917469 -5.000000 -39.625000
v 19.917469 -5.000000 -38.375000
v 19.792593 -5.000000 -39.323524
v 20.116116 -5.000000 -38.116116
v 20.676476 -5.000000 -37.792591
v 20.676476 -5.000000 -40.207409
v 20.375000 -5.000000 -37.917469
v 20.375000 -5.000000 -40.082531
v 20.116116 -5.000000 -39.883884
v 21.625000 -5.000000 -37.917469
v 21.625000 -5.000000 -40.082531
v 21.323524 -5.000000 -37.792591
v 21.323524 -5.000000 -40.207409
v 22.082531 -5.000000 -39.625000
v 22.250000 -5.000000 -39.000000
v 22.207407 -5.000000 -38.676476
v 22.207407 -5.000000 -39.323524
v 22.082531 -5.000000 -38.375000
v 21.883884 -5.000000 -39.883884
v 21.883884 -5.000000 -38.116116
v 21.000000 -5.000000 -37.750000
v 21.000000 -5.000000 -40.250000
v -22.207407 -5.250000 39.323524
v -22.250000 -5.250000 39.000000
v -22.082531 -5.250000 38.375000
v -22.082531 -5.250000 39.625000
v -22.207407 -5.250000 38.676476
v -21.883884 -5.250000 39.883884
v -21.323524 -5.250000 40.207409
v -21.323524 -5.250000 37.792591
v -21.625000 -5.250000 40.082531
v -21.625000 -5.250000 37.917469
v -21.883884 -5.250000 38.116116
v -20.375000 -5.250000 40.082531
v -20.375000 -5.250000 37.917469
v -20.676476 -5.250000 40.207409
v -20.676476 -5.250000 37.792591
v -19.917469 -5.250000 38.375000
v -19.750000 -5.250000 39.000000
v -19.792593 -5.250000 39.323524
v -19.792593 -5.250000 38.676476
v -19.917469 -5.250000 39.625000
v -20.116116 -5.250000 38.116116
v -20.116116 -5.250000 39.883884
v -21.000000 -5.250000 40.250000
v -21.000000 -5.250000 37.750000
v -22.250000 0.000000 39.000000
v -22.207407 0.000000 39.323524
v -22.207407 0.000000 38.676476
v -22.082531 0.000000 39.625000
v -22.082531 0.000000 38.375000
v -21.883884 0.000000 38.116116
v -21.323524 0.000000 40.207409
v -21.323524 0.000000 37.792591
v -21.625000 0.000000 40.082531
v -21.625000 0.000000 37.917469
v -21.883884 0.000000 39.883884
v -20.375000 0.000000 40.082531
v -20.375000 0.000000 37.917469
v -20.676476 0.000000 40.207409
v -20.676476 0.000000 37.792591
v -19.917469 0.000000 39.625000
v -19.750000 0.000000 39.000000
v -19.792593 0.000000 39.323524
v -19.792593 0.000000 38.676476
v -19.917469 0.000000 38.375000
v -20.116116 0.000000 38.116116
v -20.116116 0.000000 39.883884
v -21.000000 0.000000 40.250000
v -21.000000 0.000000 37.750000
v -22.250000 -5.000000 39.000000
v -22.207407 -5.000000 39.323524
v -22.082531 -5.000000 38.375000
v -22.082531 -5.000000 39.625000
v -22.207407 -5.000000 38.676476
v -21.883884 -5.000000 39.883884
v -21.323524 -5.000000 40.207409
v -21.323524 -5.000000 37.792591
v -21.625000 -5.000000 40.082531
v -21.625000 -5.000000 37.917469
v -21.883884 -5.000000 38.116116
v -20.375000 -5.000000 40.082531
v -20.375000 -5.000000 37.917469
v -20.676476 -5.000000 40.207409
v -20.676476 -5.000000 37.792591
v -19.917469 -5.000000 38.375000
v -19.750000 -5.000000 39.000000
v -19.792593 -5.000000 39.323524
v -19.792593 -5.000000 38.676476
v -19.917469 -5.000000 39.625000
v -20.116116 -5.000000 38.116116
v -20.116116 -5.000000 39.883884
v -21.000000 -5.000000 40.250000
v -21.000000 -5.000000 37.750000
v 19.750000 -5.250000 39.000000
v 19.792593 -5.250000 39.323524
v 19.792593 -5.250000 38.676476
v 19.917469 -5.250000 39.625000
v 19.917469 -5.250000 38.375000
v 20.676476 -5.250000 40.207409
v 20.676476 -5.250000 37.792591
v 20.375000 -5.250000 40.082531
v 20.375000 -5.250000 37.917469
v 20.116116 -5.250000 39.883884
v 20.116116 -5.250000 38.116116
v 21.323524 -5.250000 37.792591
v 21.625000 -5.250000 40.082531
v 21.323524 -5.250000 40.207409
v 21.625000 -5.250000 37.917469
v 22.082531 -5.250000 39.625000
v 22.082531 -5.250000 38.375000
v 22.250000 -5.250000 39.000000
v 22.207407 -5.250000 39.323524
v 22.207407 -5.250000 38.676476
v 21.883884 -5.250000 39.883884
v 21.883884 -5.250000 38.116116
v 21.000000 -5.250000 37.750000
v 21.000000 -5.250000 40.250000
v 19.750000 0.000000 39.000000
v 19.792593 0.000000 39.323524
v 19.792593 0.000000 38.676476
v 19.917469 0.000000 39.625000
v 19.917469 0.000000 38.375000
v 20.116116 0.000000 38.116116
v 20.676476 0.000000 40.207409
v 20.676476 0.000000 37.792591
v 20.375000 0.000000 40.082531
v 20.375000 0.000000 37.917469
v 20.116116 0.000000 39.883884
v 21.625000 0.000000 40.082531
v 21.625000 0.000000 37.917469
v 21.323524 0.000000 40.207409
v 21.323524 0.000000 37.792591
v 22.082531 0.000000 39.625000
v 22.250000 0.000000 39.000000
v 22.207407 0.000000 39.323524
v 22.207407 0.000000 38.676476
v 22.082531 0.000000 38.375000
v 21.883884 0.000000 38.116116
v 21.883884 0.000000 39.883884
v 21.000000 0.000000 40.250000
v 21.000000 0.000000 37.750000
v 19.750000 -5.000000 39.000000
v 19.792593 -5.000000 39.323524
v 19.917469 -5.000000 38.375000
v 19.917469 -5.000000 39.625000
v 19.792593 -5.000000 38.676476
v 20.116116 -5.000000 39.883884
v 20.676476 -5.000000 40.207409
v 20.676476 -5.000000 37.792591
v 20.375000 -5.000000 40.082531
v 20.375000 -5.000000 37.917469
v 20.116116 -5.000000 38.116116
v 21.625000 -5.000000 40.082531
v 21.625000 -5.000000 37.917469
v 21.323524 -5.000000 40.207409
v 21.323524 -5.000000 37.792591
v 22.082531 -5.000000 38.375000
v 22.250000 -5.000000 39.000000
v 22.207407 -5.000000 39.323524
v 22.207407 -5.000000 38.676476
v 22.082531 -5.000000 39.625000
v 21.883884 -5.000000 38.116116
v 21.883884 -5.000000 39.883884
v 21.000000 -5.000000 40.250000
v 21.000000 -5.000000 37.750000
v -6.250000 -4.550000 45.327503
v 6.250000 -4.550000 45.360279
v -6.250000 0.950000 45.327503
v 6.250000 0.950000 45.360279
v -6.250000 0.950000 43.400002
v 6.250000 0.950000 43.400002
v -6.250000 -4.550000 43.400002
v 6.250000 -4.550000 43.400002
v 27.343517 -2.800000 -0.220000
v 27.365862 -2.800000 -15.719999
v 27.343517 1.000000 -0.220000
v 27.365862 1.000000 -15.719999
v 25.400000 -2.800000 -0.220000
v 25.400000 -2.800000 -15.719999
v 25.400000 1.000000 -15.719999
v 25.400000 1.000000 -0.220000
v 27.348057 1.600000 -3.369829
v 27.361313 1.600000 -12.564680
v 25.400000 1.600000 -2.983165
v 25.500000 1.600000 -2.970000
v 25.500000 1.600000 -12.969999
v 25.400000 1.600000 -12.956834
v 26.794096 1.600000 -12.799629
v 26.794096 1.600000 -3.140371
v 27.348059 1.000000 -3.369830
v 27.361313 1.000000 -12.564680
v 27.348057 -4.000000 -3.369829
v 27.361313 -4.000000 -12.564680
v 27.361313 -2.800000 -12.564680
v 27.348059 -2.800000 -3.369830
v 25.400000 -4.000000 -2.983165
v 25.400000 -4.000000 -12.956834
v 25.400000 1.000000 -12.956834
v 25.400000 1.000000 -2.983165
v 25.400000 -2.800000 -12.956834
v 25.400000 -2.800000 -2.983165
v 26.794096 -2.800000 -12.799629
v 25.500000 -2.800000 -2.970000
v 25.500000 -2.800000 -12.969999
v 26.794096 -2.800000 -3.140371
v 26.794096 1.000000 -12.799629
v 25.500000 1.000000 -2.970000
v 26.794096 1.000000 -3.140371
v 25.500000 1.000000 -12.969999
v -13.105482 -7.000000 40.154114
v -13.160001 -7.000000 39.740002
v -12.945641 -7.000000 38.940002
v -12.945641 -7.000000 40.540001
v -13.105482 -7.000000 39.325890
v -12.691371 -7.000000 40.871372
v -11.974111 -7.000000 41.285484
v -11.974111 -7.000000 38.194519
v -12.360001 -7.000000 41.125641
v -12.360001 -7.000000 38.354362
v -12.691371 -7.000000 38.608631
v -10.760000 -7.000000 41.125641
v -10.760000 -7.000000 38.354362
v -11.145890 -7.000000 41.285484
v -11.145890 -7.000000 38.194519
v -10.174360 -7.000000 38.940002
v -9.960000 -7.000000 39.740002
v -10.014519 -7.000000 40.154114
v -10.014519 -7.000000 39.325890
v -10.174360 -7.000000 40.540001
v -10.428630 -7.000000 38.608631
v -10.428630 -7.000000 40.871372
v -11.560000 -7.000000 41.340000
v -11.560000 -7.000000 38.140003
v -12.787408 -5.250000 38.733791
v -10.317084 -5.250000 38.754002
v -13.147290 -5.250000 39.643456
v -9.960000 -5.250000 39.740002
v -9.987824 -5.250000 39.951351
v -10.174360 -5.250000 38.940002
v -13.105482 -5.250000 39.325890
v -12.945641 -5.250000 38.940002
v -10.014519 -5.250000 39.325890
v -12.691371 -5.250000 38.608631
v -10.428630 -5.250000 38.608631
v -11.974111 -5.250000 38.194519
v -12.360001 -5.250000 38.354362
v -10.760000 -5.250000 38.354362
v -11.145890 -5.250000 38.194519
v -11.560000 -5.250000 38.140003
v -13.160001 -5.250000 39.740002
v -10.014519 -5.250000 40.154114
v -13.105482 -5.250000 40.154114
v -10.174360 -5.250000 40.540001
v -12.945641 -5.250000 40.540001
v -12.691371 -5.250000 40.871372
v -12.360001 -5.250000 41.125641
v -11.974111 -5.250000 41.285484
v -11.560000 -5.250000 41.340000
v -10.760000 -5.250000 41.125641
v -11.145890 -5.250000 41.285484
v -10.428630 -5.250000 40.871372
v 10.037702 -7.000000 40.185940
v 10.184359 -7.000000 40.540001
v 12.701370 -7.000000 40.871372
v 13.074250 -7.000000 40.253654
v 12.955641 -7.000000 40.540001
v 10.438629 -7.000000 40.871372
v 10.770000 -7.000000 41.125641
v 12.370000 -7.000000 41.125641
v 11.155890 -7.000000 41.285484
v 11.570000 -7.000000 41.340000
v 11.984110 -7.000000 41.285484
v 9.969999 -7.000000 39.740002
v 10.024518 -7.000000 40.154114
v 10.024518 -7.000000 39.325890
v 10.438629 -7.000000 38.608631
v 11.155890 -7.000000 38.194519
v 10.770000 -7.000000 38.354362
v 10.184359 -7.000000 38.940002
v 11.984110 -7.000000 38.194519
v 12.955641 -7.000000 38.940002
v 12.701370 -7.000000 38.608631
v 12.370000 -7.000000 38.354362
v 13.170000 -7.000000 39.740002
v 13.115481 -7.000000 40.154114
v 13.115481 -7.000000 39.325890
v 11.570000 -7.000000 38.140003
v 10.184359 -5.250000 38.940002
v 12.957473 -5.250000 38.944427
v 10.198287 -5.250000 38.921852
v 10.024518 -5.250000 39.325890
v 13.115481 -5.250000 39.325890
v 10.184359 -5.250000 40.540001
v 10.024518 -5.250000 40.154114
v 11.155890 -5.250000 41.285484
v 10.770000 -5.250000 41.125641
v 10.438629 -5.250000 40.871372
v 11.984110 -5.250000 41.285484
v 12.701370 -5.250000 40.871372
v 12.370000 -5.250000 41.125641
v 12.955641 -5.250000 40.540001
v 13.115481 -5.250000 40.154114
v 11.570000 -5.250000 41.340000
v 9.969999 -5.250000 39.740002
v 13.170000 -5.250000 39.740002
v 12.955641 -5.250000 38.940002
v 10.438629 -5.250000 38.608631
v 11.155890 -5.250000 38.194519
v 10.770000 -5.250000 38.354362
v 11.984110 -5.250000 38.194519
v 12.701370 -5.250000 38.608631
v 12.370000 -5.250000 38.354362
v 11.570000 -5.250000 38.140003
vn -0.0000 -1.0000 -0.0000
vn -0.0000 1.0000 -0.0000
vn -0.2903 -0.0000 -0.9569
vn -0.0026 -0.0000 1.0000
vn -0.4714 -0.0000 -0.8819
vn 0.0980 -0.0000 0.9952
vn -0.6344 -0.0000 -0.7730
vn 0.2903 -0.0000 0.9569
vn -0.7730 -0.0000 -0.6344
vn 1.0000 -0.0000 0.0014
vn 0.4714 -0.0000 0.8819
vn -0.8819 -0.0000 -0.4714
vn 0.9952 -0.0000 -0.0980
vn 0.6344 -0.0000 0.7730
vn -0.9569 -0.0000 -0.2903
vn 0.9569 -0.0000 -0.2903
vn 0.7730 -0.0000 0.6344
vn -1.0000 -0.0000 -0.0014
vn 0.8819 -0.0000 -0.4714
vn 0.8819 -0.0000 0.4714
vn -0.9952 -0.0000 0.0980
vn 0.7730 -0.0000 -0.6344
vn 0.9569 -0.0000 0.2903
vn -0.9569 -0.0000 0.2903
vn 0.6344 -0.0000 -0.7730
vn -0.8819 -0.0000 0.4714
vn 0.4714 -0.0000 -0.8819
vn -0.7730 -0.0000 0.6344
vn 0.2903 -0.0000 -0.9569
vn -0.6344 -0.0000 0.7730
vn 0.0026 -0.0000 -1.0000
vn -0.4714 -0.0000 0.8819
vn -0.0980 -0.0000 -0.9952
vn -0.2903 -0.0000 0.9569
vn 1.0000 -0.0000 -0.0000
vn -0.0000 -0.0000 1.0000
vn -1.0000 -0.0000 -0.0000
vn -0.0000 -0.0000 -1.0000
vn 0.1305 -0.0000 -0.9914
vn 0.3827 -0.0000 -0.9239
vn 0.6088 -0.0000 -0.7934
vn 0.7934 -0.0000 -0.6088
vn 0.9239 -0.0000 -0.3827
vn 0.9914 -0.0000 -0.1305
vn 0.9914 -0.0000 0.1305
vn 0.9239 -0.0000 0.3827
vn 0.7934 -0.0000 0.6088
vn 0.6088 -0.0000 0.7934
vn 0.3827 -0.0000 0.9239
vn 0.1305 -0.0000 0.9914
vn -0.1305 -0.0000 0.9914
vn -0.3827 -0.0000 0.9239
vn -0.6088 -0.0000 0.7934
vn -0.7934 -0.0000 0.6088
vn -0.9239 -0.0000 0.3827
vn -0.9914 -0.0000 0.1305
vn -0.9914 -0.0000 -0.1305
vn -0.9239 -0.0000 -0.3827
vn -0.7934 -0.0000 -0.6088
vn -0.6088 -0.0000 -0.7934
vn -0.3827 -0.0000 -0.9239
vn -0.1305 -0.0000 -0.9914
vt 0.000000 0.000000
vt 0.603333 0.000000
vt 0.375000 0.000000
vt 0.375000 0.250000
vt 0.603333 0.250000
vt 0.603333 0.499957
vt 0.375000 0.500000
vt 0.603333 0.500000
vt 0.583333 0.579723
vt 0.583333 0.587682
vt 0.603333 0.587682
vt 0.456667 0.587682
vt 0.456667 0.579723
vt 0.375000 0.750000
vt 0.603333 0.750000
vt 0.603333 0.616408
vt 0.583333 0.616408
vt 0.583333 0.624366
vt 0.456667 0.624366
vt 0.456667 0.616408
vt 0.416667 0.616408
vt 0.416667 0.587682
vt 0.581667 0.905758
vt 0.603333 0.999957
vt 0.581667 0.844242
vt 0.398333 0.844242
vt 0.375000 1.000000
vt 0.603333 1.000000
vt 0.398333 0.905758
vt 0.187070 0.736560
vt 0.152595 0.736395
vt 0.152805 0.737327
vt 0.185299 0.739180
vt 0.185504 0.738266
vt 0.186291 0.737154
vt 0.199227 0.736619
vt 0.199929 0.737154
vt 0.200716 0.738266
vt 0.200984 0.739458
vt 0.200847 0.740067
vt 0.357696 0.739873
vt 0.356422 0.740445
vt 0.354939 0.740805
vt 0.353346 0.740928
vt 0.351754 0.740805
vt 0.350271 0.740445
vt 0.348996 0.739873
vt 0.348019 0.739127
vt 0.347405 0.738259
vt 0.347195 0.737328
vt 0.313767 0.737167
vt 0.314545 0.738266
vt 0.314813 0.739459
vt 0.314545 0.740651
vt 0.313758 0.741763
vt 0.312507 0.742717
vt 0.310876 0.743449
vt 0.308977 0.743910
vt 0.306939 0.744067
vt 0.304901 0.743910
vt 0.303002 0.743449
vt 0.301371 0.742717
vt 0.300120 0.741763
vt 0.299333 0.740651
vt 0.299065 0.739459
vt 0.299333 0.738266
vt 0.300120 0.737155
vt 0.300188 0.737102
vt 0.141326 0.510873
vt 0.142304 0.510127
vt 0.125000 0.500000
vt 0.125000 0.750000
vt 0.142304 0.739873
vt 0.141326 0.739127
vt 0.140712 0.738259
vt 0.140502 0.737327
vt 0.140712 0.736395
vt 0.141326 0.735527
vt 0.142304 0.734781
vt 0.143578 0.734209
vt 0.145061 0.733850
vt 0.146654 0.733727
vt 0.148246 0.733850
vt 0.149729 0.734209
vt 0.151003 0.734782
vt 0.151981 0.735527
vt 0.187542 0.736200
vt 0.189173 0.735468
vt 0.191072 0.735007
vt 0.193110 0.734850
vt 0.195148 0.735007
vt 0.197047 0.735467
vt 0.198678 0.736200
vt 0.301371 0.736200
vt 0.303002 0.735468
vt 0.304901 0.735007
vt 0.306939 0.734851
vt 0.308977 0.735007
vt 0.310876 0.735468
vt 0.312507 0.736200
vt 0.313758 0.737154
vt 0.347405 0.736396
vt 0.348019 0.735527
vt 0.348997 0.734782
vt 0.350271 0.734209
vt 0.351754 0.733850
vt 0.353346 0.733727
vt 0.354939 0.733850
vt 0.356422 0.734209
vt 0.357696 0.734782
vt 0.358674 0.735527
vt 0.359288 0.736395
vt 0.359498 0.737327
vt 0.359288 0.738259
vt 0.358674 0.739127
vt 0.357696 0.510127
vt 0.358674 0.510873
vt 0.359288 0.511741
vt 0.359498 0.512673
vt 0.359288 0.513605
vt 0.358674 0.514473
vt 0.357696 0.515219
vt 0.356422 0.515791
vt 0.354939 0.516150
vt 0.353346 0.516273
vt 0.351754 0.516150
vt 0.350271 0.515791
vt 0.348997 0.515219
vt 0.348019 0.514473
vt 0.347405 0.513605
vt 0.347195 0.512673
vt 0.152805 0.512673
vt 0.152596 0.513605
vt 0.151981 0.514473
vt 0.151003 0.515219
vt 0.149729 0.515791
vt 0.148246 0.516150
vt 0.146654 0.516273
vt 0.145061 0.516150
vt 0.143578 0.515791
vt 0.142304 0.515219
vt 0.141326 0.514473
vt 0.140712 0.513605
vt 0.140502 0.512673
vt 0.140712 0.511741
vt 0.143578 0.740445
vt 0.200716 0.740651
vt 0.199929 0.741763
vt 0.198678 0.742717
vt 0.197047 0.743449
vt 0.195148 0.743910
vt 0.193110 0.744067
vt 0.191072 0.743910
vt 0.189173 0.743449
vt 0.187542 0.742717
vt 0.186291 0.741763
vt 0.185504 0.740651
vt 0.185236 0.739458
vt 0.152596 0.738259
vt 0.151981 0.739127
vt 0.151003 0.739873
vt 0.149729 0.740445
vt 0.148246 0.740805
vt 0.146654 0.740927
vt 0.145061 0.740805
vt 0.356422 0.509555
vt 0.347405 0.511741
vt 0.348019 0.510873
vt 0.348997 0.510127
vt 0.350271 0.509555
vt 0.351754 0.509195
vt 0.353346 0.509073
vt 0.354939 0.509195
vt 0.152596 0.511741
vt 0.143578 0.509555
vt 0.145061 0.509195
vt 0.146654 0.509073
vt 0.148246 0.509195
vt 0.149729 0.509555
vt 0.151003 0.510127
vt 0.151981 0.510873
vt 1.000000 0.500000
vt 1.000000 1.000000
vt 0.958333 1.000000
vt 0.958333 0.500000
vt 0.916667 1.000000
vt 0.916667 0.500000
vt 0.875000 1.000000
vt 0.875000 0.500000
vt 0.833333 1.000000
vt 0.833333 0.500000
vt 0.791667 1.000000
vt 0.791667 0.500000
vt 0.750000 1.000000
vt 0.750000 0.500000
vt 0.708333 1.000000
vt 0.708333 0.500000
vt 0.666667 1.000000
vt 0.666667 0.500000
vt 0.625000 1.000000
vt 0.625000 0.500000
vt 0.583333 1.000000
vt 0.583333 0.500000
vt 0.541666 1.000000
vt 0.541666 0.500000
vt 0.500000 1.000000
vt 0.500000 0.500000
vt 0.458333 1.000000
vt 0.458333 0.500000
vt 0.416666 1.000000
vt 0.416666 0.500000
vt 0.375000 1.000000
vt 0.375000 0.500000
vt 0.333333 1.000000
vt 0.333333 0.500000
vt 0.291667 1.000000
vt 0.291667 0.500000
vt 0.250000 1.000000
vt 0.250000 0.500000
vt 0.208333 1.000000
vt 0.208333 0.500000
vt 0.166666 1.000000
vt 0.166666 0.500000
vt 0.125000 1.000000
vt 0.125000 0.500000
vt 0.083333 1.000000
vt 0.083333 0.500000
vt 0.010000 0.250000
vt 0.018178 0.187883
vt 0.042154 0.130000
vt 0.080294 0.080294
vt 0.184729 0.184729
vt 0.170059 0.203846
vt 0.160838 0.226109
vt 0.157692 0.250000
vt 0.160838 0.273891
vt 0.170059 0.296154
vt 0.184729 0.315271
vt 0.203846 0.329941
vt 0.226109 0.339162
vt 0.187883 0.481822
vt 0.130000 0.457846
vt 0.080294 0.419706
vt 0.042154 0.370000
vt 0.018178 0.312117
vt 0.370000 0.457846
vt 0.312117 0.481822
vt 0.250000 0.490000
vt 0.250000 0.342308
vt 0.273891 0.339162
vt 0.296154 0.329941
vt 0.315271 0.315271
vt 0.329941 0.296154
vt 0.339162 0.273891
vt 0.342308 0.250000
vt 0.339162 0.226109
vt 0.329941 0.203846
vt 0.315271 0.184729
vt 0.296154 0.170059
vt 0.273891 0.160838
vt 0.250000 0.157692
vt 0.226109 0.160837
vt 0.203846 0.170059
vt 0.130000 0.042154
vt 0.187883 0.018178
vt 0.250000 0.010000
vt 0.312117 0.018178
vt 0.370000 0.042154
vt 0.419706 0.080294
vt 0.457846 0.130000
vt 0.481822 0.187883
vt 0.490000 0.250000
vt 0.481822 0.312117
vt 0.457846 0.370000
vt 0.419706 0.419706
vt 0.041666 1.000000
vt 0.041666 0.500000
vt -0.000000 1.000000
vt -0.000000 0.500000
vt 0.687883 0.481822
vt 0.750000 0.490000
vt 0.812117 0.481822
vt 0.870000 0.457846
vt 0.919706 0.419706
vt 0.957846 0.370000
vt 0.981822 0.312117
vt 0.990000 0.250000
vt 0.842308 0.250000
vt 0.839162 0.273891
vt 0.829941 0.296154
vt 0.815271 0.315271
vt 0.796154 0.329941
vt 0.773891 0.339162
vt 0.750000 0.342308
vt 0.726109 0.339162
vt 0.703846 0.329941
vt 0.684728 0.315271
vt 0.670059 0.296154
vt 0.660838 0.273891
vt 0.657692 0.250000
vt 0.660838 0.226109
vt 0.670059 0.203846
vt 0.684729 0.184729
vt 0.703846 0.170059
vt 0.630000 0.042154
vt 0.580294 0.080294
vt 0.542154 0.130000
vt 0.518178 0.187883
vt 0.510000 0.250000
vt 0.518178 0.312117
vt 0.542154 0.370000
vt 0.580294 0.419706
vt 0.630000 0.457846
vt 0.839162 0.226109
vt 0.981822 0.187883
vt 0.957846 0.130000
vt 0.919706 0.080294
vt 0.870000 0.042154
vt 0.812117 0.018178
vt 0.750000 0.010000
vt 0.687883 0.018178
vt 0.726109 0.160837
vt 0.750000 0.157692
vt 0.773891 0.160837
vt 0.796154 0.170059
vt 0.815272 0.184729
vt 0.829941 0.203846
vt 1.000000 0.550000
vt 0.958333 0.550000
vt 0.958333 0.566667
vt 0.958333 0.900000
vt 1.000000 0.900000
vt 1.000000 0.566667
vt 0.916667 0.550000
vt 0.916667 0.566667
vt 0.916667 0.900000
vt 0.875000 0.550000
vt 0.875000 0.566667
vt 0.875000 0.900000
vt 0.833333 0.550000
vt 0.833333 0.900000
vt 0.833333 0.566667
vt 0.791667 0.550000
vt 0.791667 0.900000
vt 0.791667 0.566667
vt 0.750000 0.550000
vt 0.750000 0.900000
vt 0.750000 0.566667
vt 0.708333 0.550000
vt 0.708333 0.900000
vt 0.708333 0.566667
vt 0.666667 0.550000
vt 0.666667 0.900000
vt 0.666667 0.566667
vt 0.625000 0.550000
vt 0.625000 0.900000
vt 0.625000 0.566667
vt 0.583333 0.550000
vt 0.583333 0.900000
vt 0.583333 0.566667
vt 0.541666 0.550000
vt 0.541666 0.900000
vt 0.541666 0.566667
vt 0.500000 0.550000
vt 0.500000 0.900000
vt 0.500000 0.566667
vt 0.458333 0.550000
vt 0.458333 0.900000
vt 0.458333 0.566667
vt 0.416666 0.550000
vt 0.416666 0.900000
vt 0.416666 0.566667
vt 0.375000 0.550000
vt 0.375000 0.900000
vt 0.375000 0.566667
vt 0.333333 0.550000
vt 0.333333 0.566667
vt 0.333333 0.900000
vt 0.291666 0.550000
vt 0.291667 0.566667
vt 0.291667 0.900000
vt 0.250000 0.550000
vt 0.250000 0.566667
vt 0.250000 0.900000
vt 0.208333 0.550000
vt 0.208333 0.566667
vt 0.208333 0.900000
vt 0.166666 0.550000
vt 0.166667 0.566667
vt 0.166666 0.900000
vt 0.125000 0.550000
vt 0.125000 0.566667
vt 0.125000 0.900000
vt 0.083333 0.550000
vt 0.083333 0.566667
vt 0.083333 0.900000
vt 0.041666 0.550000
vt 0.041666 0.566667
vt 0.041666 0.900000
vt -0.000000 0.550000
vt -0.000000 0.566667
vt -0.000000 0.900000
vt 0.870000 0.042154
vt 0.919706 0.080294
vt 0.981822 0.187883
vt 0.518178 0.187883
vt 0.580294 0.080294
vt 0.630000 0.042154
vt 0.750000 0.010000
vt 0.875000 0.550000
vt 0.750000 0.550000
vt 0.250000 0.550000
vt 0.125000 0.550000
vt 0.375000 0.550000
vt 0.625000 0.550000
vt 0.625000 0.143750
vt 0.625000 0.083516
vt 0.375000 0.083516
vt 0.375000 0.143750
vt 0.375000 0.606250
vt 0.375000 0.667509
vt 0.625000 0.667509
vt 0.625000 0.606250
vt 0.125000 0.606250
vt 0.125000 0.666484
vt 0.875000 0.666484
vt 0.875000 0.606250
vt 0.375000 0.417683
vt 0.625000 0.417683
vt 0.625000 0.356250
vt 0.375000 0.356250
vt 0.625000 0.893750
vt 0.625000 0.833015
vt 0.375000 0.833015
vt 0.375000 0.893750
vt 0.274816 0.547103
vt 0.292541 0.550892
vt 0.292683 0.500000
vt 0.231250 0.500000
vt 0.231250 0.544567
vt 0.234375 0.544355
vt 0.234375 0.705645
vt 0.231250 0.705433
vt 0.231250 0.750000
vt 0.291985 0.750000
vt 0.292127 0.699196
vt 0.274815 0.702897
vt 0.725185 0.702897
vt 0.707873 0.699196
vt 0.708015 0.750000
vt 0.768750 0.750000
vt 0.768750 0.705433
vt 0.765625 0.705645
vt 0.765625 0.544355
vt 0.768750 0.544567
vt 0.768750 0.500000
vt 0.707317 0.500000
vt 0.707459 0.550892
vt 0.725185 0.547103
vt 1.000000 0.585714
vt 0.958333 0.585714
vt 0.958333 0.857143
vt 0.958333 0.900000
vt 1.000000 0.900000
vt 1.000000 0.857143
vt 0.938735 0.900000
vt 0.938735 0.857143
vt 0.938735 0.500000
vt 0.938735 0.585714
vt 0.560807 0.900000
vt 0.560807 0.857143
vt 0.541666 0.857143
vt 0.541666 0.900000
vt 0.560807 0.500000
vt 0.541666 0.585714
vt 0.560807 0.585714
vt 0.500000 0.585714
vt 0.500000 0.900000
vt 0.500000 0.857143
vt 0.496780 0.500000
vt 0.496780 0.585714
vt 0.496780 0.900000
vt 0.496780 0.857143
vt 0.003220 0.585714
vt 0.003220 0.500000
vt -0.000000 0.585714
vt -0.000000 0.857143
vt 0.003220 0.900000
vt 0.003220 0.857143
vt 0.838707 0.029192
vt 0.839343 0.470545
vt 0.745200 0.489368
vt 0.745200 0.010632
vt 1.000000 0.708333
vt 1.000000 0.611111
vt 0.958333 0.611111
vt 0.958333 0.708333
vt 0.916667 0.611111
vt 0.916667 0.708333
vt 0.875000 0.611111
vt 0.875000 0.708333
vt 0.833333 0.611111
vt 0.833333 0.708333
vt 0.856721 0.708333
vt 0.791667 0.611111
vt 0.791667 0.708333
vt 0.750000 0.611111
vt 0.750000 0.708333
vt 0.708333 0.611111
vt 0.708333 0.708333
vt 0.728735 0.708333
vt 0.666667 0.611111
vt 0.666667 0.708333
vt 0.625000 0.611111
vt 0.625000 0.708333
vt 0.583333 0.611111
vt 0.583333 0.708333
vt 0.541666 0.611111
vt 0.541666 0.708333
vt 0.500000 0.611111
vt 0.500000 0.708333
vt 0.458333 0.611111
vt 0.458333 0.708333
vt 0.416667 0.611111
vt 0.416667 0.708333
vt 0.375000 0.611111
vt 0.375000 0.708333
vt 0.333333 0.611111
vt 0.333333 0.708333
vt 0.291667 0.611111
vt 0.291667 0.708333
vt 0.250000 0.611111
vt 0.250000 0.708333
vt 0.240286 0.708333
vt 0.208333 0.611111
vt 0.208333 0.708333
vt 0.166666 0.611111
vt 0.166666 0.708333
vt 0.140737 0.708333
vt 0.125000 0.611111
vt 0.125000 0.708333
vt 0.083333 0.611111
vt 0.083333 0.708333
vt 0.041666 0.611111
vt 0.041666 0.708333
vt -0.000000 0.611111
vt -0.000000 0.708333
vt 0.832855 0.708333
vt 0.697585 0.611111
vt 0.295103 0.611111
vt 0.164384 0.708333
s 0
usemtl Mat_Case_MatteDark
f 314/1/1 311/1/1 309/1/1 307/1/1 305/1/1 303/1/1 301/1/1 299/1/1 702/1/1 704/1/1 707/1/1 705/1/1 721/1/1 712/1/1 710/1/1 720/1/1 718/1/1 716/1/1 715/1/1 751/1/1 752/1/1 756/1/1 757/1/1 759/1/1 760/1/1 761/1/1 758/1/1 753/1/1 755/1/1 754/1/1 316/1/1
f 214/1/1 201/1/1 155/1/1 142/1/1 52/1/1 316/1/1 754/1/1 774/1/1 773/1/1 775/1/1 770/1/1 771/1/1 772/1/1 769/1/1 776/1/1 766/1/1 767/1/1 765/1/1 768/1/1 764/1/1 762/1/1 763/1/1 751/1/1 715/1/1 717/1/1 714/1/1 719/1/1 711/1/1 713/1/1 722/1/1 706/1/1 708/1/1 709/1/1 701/1/1 703/1/1 700/1/1 699/1/1 702/1/1 299/1/1 297/1/1 296/1/1 294/1/1 291/1/1 287/1/1 285/1/1 282/1/1 280/1/1 277/1/1 273/1/1 269/1/1 265/1/1 259/1/1 253/1/1 246/1/1 242/1/1 232/1/1 226/1/1
f 363/1/2 361/1/2 328/1/2 330/1/2 332/1/2 334/1/2 336/1/2 337/1/2 339/1/2 341/1/2 342/1/2 343/1/2 344/1/2 345/1/2 346/1/2 347/1/2 348/1/2 349/1/2 350/1/2 365/1/2 364/1/2
f 366/1/2 365/1/2 350/1/2 351/1/2 352/1/2 353/1/2 354/1/2 355/1/2 356/1/2 357/1/2 358/1/2 359/1/2 360/1/2 671/1/2 678/1/2 674/1/2 673/1/2
f 677/1/2 672/1/2 318/1/2 320/1/2 322/1/2 324/1/2 325/1/2 328/1/2 361/1/2 362/1/2 676/1/2 675/1/2
f 253/1/3 259/1/3 337/1/3 336/1/3
f 656/1/4 301/1/4 353/1/4 658/1/4
f 657/1/4 658/1/4 353/1/4 352/1/4 299/1/4 301/1/4 656/1/4 655/1/4
f 259/1/5 265/1/5 339/1/5 337/1/5
f 301/1/6 303/1/6 354/1/6 353/1/6
f 265/1/7 269/1/7 341/1/7 339/1/7
f 303/1/8 305/1/8 355/1/8 354/1/8
f 269/1/9 273/1/9 342/1/9 341/1/9
f 52/1/10 318/1/10 666/1/10 664/1/10
f 680/1/10 666/1/10 318/1/10 672/1/10
f 681/1/10 684/1/10 663/1/10 665/1/10 679/1/10 671/1/10 360/1/10 316/1/10 52/1/10 664/1/10 683/1/10 682/1/10
f 305/1/11 307/1/11 356/1/11 355/1/11
f 273/1/12 277/1/12 343/1/12 342/1/12
f 52/1/13 142/1/13 320/1/13 318/1/13
f 307/1/14 309/1/14 357/1/14 356/1/14
f 277/1/15 280/1/15 344/1/15 343/1/15
f 142/1/16 155/1/16 322/1/16 320/1/16
f 309/1/17 311/1/17 358/1/17 357/1/17
f 280/1/18 282/1/18 345/1/18 344/1/18
f 155/1/19 201/1/19 324/1/19 322/1/19
f 311/1/20 314/1/20 359/1/20 358/1/20
f 282/1/21 285/1/21 346/1/21 345/1/21
f 201/1/22 214/1/22 325/1/22 324/1/22
f 314/1/23 316/1/23 360/1/23 359/1/23
f 285/1/24 287/1/24 347/1/24 346/1/24
f 214/1/25 226/1/25 328/1/25 325/1/25
f 287/1/26 291/1/26 348/1/26 347/1/26
f 226/1/27 232/1/27 330/1/27 328/1/27
f 291/1/28 294/1/28 349/1/28 348/1/28
f 232/1/29 242/1/29 332/1/29 330/1/29
f 294/1/30 296/1/30 350/1/30 349/1/30
f 242/1/31 246/1/31 334/1/31 332/1/31
f 296/1/32 297/1/32 351/1/32 350/1/32
f 246/1/33 253/1/33 336/1/33 334/1/33
f 297/1/34 299/1/34 352/1/34 351/1/34
f 364/2/35 97/3/35 177/4/35 363/5/35
f 361/6/36 363/5/36 177/4/36 237/7/36 362/8/36
f 669/9/37 687/10/37 676/11/37 362/8/37
f 689/12/37 668/13/37 237/7/37 211/14/37 366/15/37 673/16/37 688/17/37 670/18/37 667/19/37 690/20/37 685/21/37 686/22/37
f 669/9/37 362/8/37 237/7/37 668/13/37
f 659/23/38 365/24/38 366/15/38 660/25/38
f 662/26/38 660/25/38 366/15/38 211/14/38 97/27/38 364/28/38 365/24/38 659/23/38 661/29/38
f 723/30/2 529/31/2 527/32/2 725/33/2 729/34/2 730/35/2
f 724/36/2 728/37/2 731/38/2 726/39/2 727/40/2 211/14/2 603/41/2 595/42/2 596/43/2 606/44/2 588/45/2 590/46/2 592/47/2 586/48/2 584/49/2 583/50/2 778/51/2 781/52/2 794/53/2 791/54/2 790/55/2 788/56/2 789/57/2 787/58/2 792/59/2 784/60/2 785/61/2 786/62/2 782/63/2 783/64/2 793/65/2 780/66/2 777/67/2 779/68/2
f 371/69/2 377/70/2 177/71/2 97/72/2 516/73/2 514/74/2 511/75/2 512/76/2 515/77/2 513/78/2 521/79/2 520/80/2 518/81/2 534/82/2 525/83/2 523/84/2 531/85/2 526/86/2 529/31/2 723/30/2 732/87/2 735/88/2 734/89/2 738/90/2 737/91/2 736/92/2 733/93/2 724/36/2 779/68/2 796/94/2 798/95/2 797/96/2 802/97/2 799/98/2 801/99/2 800/100/2 795/101/2 778/51/2 583/50/2 585/102/2 587/103/2 593/104/2 591/105/2 589/106/2 605/107/2 594/108/2 597/109/2 604/110/2 599/111/2 602/112/2 600/113/2 601/114/2 598/115/2 603/41/2 211/14/2 237/7/2 460/116/2 455/117/2 458/118/2 456/119/2 457/120/2 454/121/2 459/122/2 451/123/2 452/124/2 462/125/2 444/126/2 446/127/2 448/128/2 442/129/2 440/130/2 439/131/2 384/132/2 385/133/2 382/134/2 387/135/2 379/136/2 380/137/2 389/138/2 372/139/2 374/140/2 376/141/2 370/142/2 368/143/2 367/144/2 369/145/2
f 519/146/2 516/73/2 97/72/2 211/14/2 727/40/2 740/147/2 742/148/2 750/149/2 748/150/2 749/151/2 747/152/2 746/153/2 745/154/2 744/155/2 743/156/2 741/157/2 739/158/2 725/33/2 527/32/2 528/159/2 530/160/2 532/161/2 522/162/2 524/163/2 533/164/2 517/165/2
f 453/166/2 460/116/2 237/7/2 384/132/2 439/131/2 441/167/2 443/168/2 449/169/2 447/170/2 445/171/2 461/172/2 450/173/2
f 386/174/2 384/132/2 237/7/2 177/71/2 377/70/2 375/175/2 373/176/2 390/177/2 378/178/2 381/179/2 388/180/2 383/181/2
f 75/182/39 126/183/39 172/184/39 154/185/39
f 154/185/40 172/184/40 199/186/40 189/187/40
f 189/187/41 199/186/41 220/188/41 205/189/41
f 205/189/42 220/188/42 228/190/42 221/191/42
f 221/191/43 228/190/43 244/192/43 235/193/43
f 235/193/44 244/192/44 255/194/44 250/195/44
f 250/195/45 255/194/45 268/196/45 261/197/45
f 261/197/46 268/196/46 274/198/46 271/199/46
f 271/199/47 274/198/47 279/200/47 276/201/47
f 276/201/48 279/200/48 286/202/48 283/203/48
f 283/203/49 286/202/49 292/204/49 289/205/49
f 289/205/50 292/204/50 295/206/50 293/207/50
f 293/207/51 295/206/51 300/208/51 298/209/51
f 298/209/52 300/208/52 304/210/52 302/211/52
f 302/211/53 304/210/53 308/212/53 306/213/53
f 306/213/54 308/212/54 312/214/54 310/215/54
f 310/215/55 312/214/55 315/216/55 313/217/55
f 313/217/56 315/216/56 319/218/56 317/219/56
f 317/219/57 319/218/57 323/220/57 321/221/57
f 321/221/58 323/220/58 327/222/58 326/223/58
f 326/223/59 327/222/59 331/224/59 329/225/59
f 329/225/60 331/224/60 335/226/60 333/227/60
f 319/228/2 315/229/2 312/230/2 308/231/2 401/232/2 394/233/2 392/234/2 391/235/2 393/236/2 395/237/2 396/238/2 400/239/2 398/240/2 340/241/2 335/242/2 331/243/2 327/244/2 323/245/2
f 199/246/2 172/247/2 126/248/2 340/241/2 398/240/2 414/249/2 405/250/2 403/251/2 411/252/2 410/253/2 409/254/2 407/255/2 408/256/2 406/257/2 412/258/2 402/259/2 404/260/2 413/261/2 397/262/2 399/263/2 401/232/2 308/231/2 304/264/2 300/265/2 295/266/2 292/267/2 286/268/2 279/269/2 274/270/2 268/271/2 255/272/2 244/273/2 228/274/2 220/275/2
f 333/227/61 335/226/61 340/276/61 338/277/61
f 338/277/62 340/276/62 126/278/62 75/279/62
f 338/280/1 75/281/1 154/282/1 189/283/1 205/284/1 221/285/1 235/286/1 250/287/1 431/288/1 433/289/1 430/290/1 435/291/1 427/292/1 429/293/1 438/294/1 422/295/1 424/296/1 425/297/1 417/298/1 419/299/1 415/300/1 416/301/1 418/302/1 420/303/1 423/304/1 302/305/1 306/306/1 310/307/1 313/308/1 317/309/1 321/310/1 326/311/1 329/312/1 333/313/1
f 432/314/1 431/288/1 250/287/1 261/315/1 271/316/1 276/317/1 283/318/1 289/319/1 293/320/1 298/321/1 302/305/1 423/304/1 421/322/1 437/323/1 428/324/1 426/325/1 436/326/1 434/327/1
f 390/328/51 20/182/51 110/185/51 378/329/51
f 429/330/51 405/331/51 414/332/51 438/333/51
f 378/329/52 110/185/52 135/187/52 381/334/52
f 427/335/52 403/336/52 405/331/52 429/330/52
f 381/334/53 135/187/53 166/189/53 388/337/53
f 435/338/53 411/339/53 403/336/53 427/335/53
f 166/189/54 183/191/54 383/340/54 388/337/54
f 410/341/54 411/339/54 435/338/54 430/342/54
f 183/191/55 195/193/55 386/343/55 383/340/55
f 409/344/55 410/341/55 430/342/55 433/345/55
f 195/193/56 208/195/56 384/346/56 386/343/56
f 407/347/56 409/344/56 433/345/56 431/348/56
f 208/195/57 217/197/57 385/349/57 384/346/57
f 408/350/57 407/347/57 431/348/57 432/351/57
f 217/197/58 223/199/58 382/352/58 385/349/58
f 406/353/58 408/350/58 432/351/58 434/354/58
f 223/199/59 230/201/59 387/355/59 382/352/59
f 412/356/59 406/353/59 434/354/59 436/357/59
f 230/201/60 234/203/60 379/358/60 387/355/60
f 402/359/60 412/356/60 436/357/60 426/360/60
f 234/203/61 239/205/61 380/361/61 379/358/61
f 404/362/61 402/359/61 426/360/61 428/363/61
f 239/205/62 247/207/62 389/364/62 380/361/62
f 413/365/62 404/362/62 428/363/62 437/366/62
f 247/207/39 251/209/39 372/367/39 389/364/39
f 397/368/39 413/365/39 437/366/39 421/369/39
f 251/209/40 257/211/40 374/370/40 372/367/40
f 399/371/40 397/368/40 421/369/40 423/372/40
f 257/211/41 264/213/41 376/373/41 374/370/41
f 401/374/41 399/371/41 423/372/41 420/375/41
f 376/373/42 264/213/42 270/215/42 370/376/42
f 418/377/42 394/378/42 401/374/42 420/375/42
f 370/376/43 270/215/43 272/217/43 368/379/43
f 416/380/43 392/381/43 394/378/43 418/377/43
f 368/379/44 272/217/44 275/219/44 367/382/44
f 415/383/44 391/384/44 392/381/44 416/380/44
f 367/382/45 275/219/45 278/221/45 369/385/45
f 419/386/45 393/387/45 391/384/45 415/383/45
f 369/385/46 278/221/46 281/223/46 371/388/46
f 417/389/46 395/390/46 393/387/46 419/386/46
f 371/388/47 281/223/47 284/225/47 377/391/47
f 425/392/47 396/393/47 395/390/47 417/389/47
f 377/391/48 284/225/48 288/227/48 375/394/48
f 424/395/48 400/396/48 396/393/48 425/392/48
f 375/394/49 288/227/49 290/277/49 373/397/49
f 422/398/49 398/399/49 400/396/49 424/395/49
f 373/397/50 290/277/50 20/279/50 390/400/50
f 438/401/50 414/402/50 398/399/50 422/398/50
f 234/403/2 230/404/2 223/316/2 217/405/2 208/287/2 195/286/2 183/285/2 166/284/2 135/283/2 110/282/2 20/281/2 290/280/2 288/313/2 284/312/2 281/311/2 278/310/2 275/309/2 272/406/2 270/307/2 264/407/2 257/408/2 251/321/2 247/409/2 239/319/2
f 24/182/39 45/183/39 89/184/39 79/185/39
f 79/185/40 89/184/40 130/186/40 118/187/40
f 118/187/41 130/186/41 147/188/41 137/189/41
f 137/189/42 147/188/42 159/190/42 151/191/42
f 151/191/43 159/190/43 167/192/43 164/193/43
f 164/193/44 167/192/44 182/194/44 175/195/44
f 175/195/45 182/194/45 192/196/45 186/197/45
f 186/197/46 192/196/46 202/198/46 197/199/46
f 197/199/47 202/198/47 207/200/47 203/201/47
f 203/201/48 207/200/48 212/202/48 209/203/48
f 209/203/49 212/202/49 218/204/49 215/205/49
f 215/205/50 218/204/50 224/206/50 222/207/50
f 222/207/51 224/206/51 227/208/51 225/209/51
f 225/209/52 227/208/52 231/210/52 229/211/52
f 229/211/53 231/210/53 236/212/53 233/213/53
f 233/213/54 236/212/54 240/214/54 238/215/54
f 238/215/55 240/214/55 243/216/55 241/217/55
f 241/217/56 243/216/56 248/218/56 245/219/56
f 245/219/57 248/218/57 252/220/57 249/221/57
f 249/221/58 252/220/58 256/222/58 254/223/58
f 254/223/59 256/222/59 260/224/59 258/225/59
f 258/225/60 260/224/60 263/226/60 262/227/60
f 248/228/2 243/229/2 240/230/2 236/231/2 473/232/2 466/233/2 464/234/2 463/235/2 465/236/2 467/237/2 468/238/2 472/239/2 470/240/2 267/241/2 263/242/2 260/243/2 256/244/2 252/245/2
f 207/269/2 202/270/2 192/271/2 182/272/2 167/273/2 159/274/2 147/275/2 130/246/2 89/247/2 45/248/2 267/241/2 470/240/2 486/249/2 477/250/2 475/251/2 483/252/2 482/253/2 481/254/2 479/255/2 480/256/2 478/257/2 484/258/2 474/259/2 476/260/2 485/261/2 469/262/2 471/263/2 473/232/2 236/231/2 231/264/2 227/265/2 224/266/2 218/267/2 212/268/2
f 262/227/61 263/226/61 267/276/61 266/277/61
f 266/277/62 267/276/62 45/278/62 24/279/62
f 266/280/1 24/281/1 79/282/1 118/283/1 137/284/1 151/285/1 164/286/1 175/287/1 503/288/1 505/289/1 502/290/1 507/291/1 499/292/1 501/293/1 510/294/1 494/295/1 496/296/1 497/297/1 489/298/1 491/299/1 487/300/1 488/301/1 490/302/1 492/303/1 495/304/1 229/305/1 233/306/1 238/307/1 241/308/1 245/309/1 249/310/1 254/311/1 258/312/1 262/313/1
f 504/314/1 503/288/1 175/287/1 186/315/1 197/316/1 203/317/1 209/318/1 215/319/1 222/320/1 225/321/1 229/305/1 495/304/1 493/322/1 509/323/1 500/324/1 498/325/1 508/326/1 506/327/1
f 461/328/51 9/182/51 37/185/51 450/329/51
f 501/330/51 477/331/51 486/332/51 510/333/51
f 450/329/52 37/185/52 67/187/52 453/334/52
f 499/335/52 475/336/52 477/331/52 501/330/52
f 453/334/53 67/187/53 84/189/53 460/410/53
f 507/338/53 483/339/53 475/336/53 499/335/53
f 84/189/54 106/191/54 455/340/54 460/410/54
f 482/341/54 483/339/54 507/338/54 502/342/54
f 106/191/55 124/193/55 458/343/55 455/340/55
f 481/344/55 482/341/55 502/342/55 505/345/55
f 124/193/56 131/195/56 456/411/56 458/343/56
f 479/347/56 481/344/56 505/345/56 503/348/56
f 131/195/57 143/197/57 457/349/57 456/411/57
f 480/350/57 479/347/57 503/348/57 504/351/57
f 143/197/58 149/199/58 454/352/58 457/349/58
f 478/353/58 480/350/58 504/351/58 506/354/58
f 149/199/59 157/201/59 459/355/59 454/352/59
f 484/356/59 478/353/59 506/354/59 508/357/59
f 157/201/60 161/203/60 451/358/60 459/355/60
f 474/359/60 484/356/60 508/357/60 498/360/60
f 161/203/61 169/205/61 452/361/61 451/358/61
f 476/362/61 474/359/61 498/360/61 500/363/61
f 169/205/62 174/207/62 462/364/62 452/361/62
f 485/365/62 476/362/62 500/363/62 509/366/62
f 174/207/39 179/209/39 444/367/39 462/364/39
f 469/368/39 485/365/39 509/366/39 493/369/39
f 179/209/40 188/211/40 446/370/40 444/367/40
f 471/371/40 469/368/40 493/369/40 495/372/40
f 188/211/41 194/213/41 448/373/41 446/370/41
f 473/374/41 471/371/41 495/372/41 492/375/41
f 448/373/42 194/213/42 198/215/42 442/376/42
f 490/377/42 466/378/42 473/374/42 492/375/42
f 442/376/43 198/215/43 200/217/43 440/379/43
f 488/380/43 464/381/43 466/378/43 490/377/43
f 440/379/44 200/217/44 204/219/44 439/412/44
f 487/383/44 463/384/44 464/381/44 488/380/44
f 439/412/45 204/219/45 206/221/45 441/385/45
f 491/386/45 465/387/45 463/384/45 487/383/45
f 441/385/46 206/221/46 210/223/46 443/388/46
f 489/389/46 467/390/46 465/387/46 491/386/46
f 443/388/47 210/223/47 213/225/47 449/413/47
f 497/392/47 468/393/47 467/390/47 489/389/47
f 449/413/48 213/225/48 216/227/48 447/394/48
f 496/395/48 472/396/48 468/393/48 497/392/48
f 447/394/49 216/227/49 219/277/49 445/397/49
f 494/398/49 470/399/49 472/396/49 496/395/49
f 445/397/50 219/277/50 9/279/50 461/400/50
f 510/401/50 486/402/50 470/399/50 494/398/50
f 216/313/2 213/312/2 210/311/2 206/310/2 204/309/2 200/406/2 198/307/2 194/407/2 188/408/2 179/321/2 174/409/2 169/319/2 161/403/2 157/404/2 149/316/2 143/405/2 131/287/2 124/286/2 106/285/2 84/284/2 67/283/2 37/282/2 9/281/2 219/280/2
f 6/182/39 15/183/39 40/184/39 30/185/39
f 30/185/40 40/184/40 57/186/40 48/187/40
f 48/187/41 57/186/41 70/188/41 61/189/41
f 61/189/42 70/188/42 88/190/42 82/191/42
f 82/191/43 88/190/43 100/192/43 94/193/43
f 94/193/44 100/192/44 112/194/44 103/195/44
f 103/195/45 112/194/45 120/196/45 113/197/45
f 113/197/46 120/196/46 128/198/46 127/199/46
f 127/199/47 128/198/47 136/200/47 133/201/47
f 133/201/48 136/200/48 141/202/48 139/203/48
f 139/203/49 141/202/49 148/204/49 145/205/49
f 145/205/50 148/204/50 152/206/50 150/207/50
f 150/207/51 152/206/51 156/208/51 153/209/51
f 153/209/52 156/208/52 160/210/52 158/211/52
f 158/211/53 160/210/53 163/212/53 162/213/53
f 162/213/54 163/212/54 168/214/54 165/215/54
f 165/215/55 168/214/55 171/216/55 170/217/55
f 170/217/56 171/216/56 176/218/56 173/219/56
f 173/219/57 176/218/57 180/220/57 178/221/57
f 178/221/58 180/220/58 184/222/58 181/223/58
f 181/223/59 184/222/59 187/224/59 185/225/59
f 185/225/60 187/224/60 191/226/60 190/227/60
f 176/228/2 171/229/2 168/230/2 163/231/2 545/232/2 538/233/2 536/234/2 535/235/2 537/236/2 539/237/2 540/238/2 544/239/2 542/240/2 196/241/2 191/242/2 187/243/2 184/244/2 180/245/2
f 156/265/2 152/266/2 148/267/2 141/268/2 136/269/2 128/270/2 120/271/2 112/272/2 100/273/2 88/274/2 70/275/2 57/246/2 40/247/2 15/248/2 196/241/2 542/240/2 558/249/2 549/250/2 547/251/2 555/252/2 554/253/2 553/254/2 551/255/2 552/256/2 550/257/2 556/258/2 546/259/2 548/260/2 557/261/2 541/262/2 543/263/2 545/232/2 163/231/2 160/264/2
f 190/227/61 191/226/61 196/276/61 193/277/61
f 193/277/62 196/276/62 15/278/62 6/279/62
f 193/280/1 6/281/1 30/282/1 48/283/1 61/284/1 82/285/1 94/286/1 103/287/1 575/288/1 577/289/1 574/290/1 579/291/1 571/292/1 573/293/1 582/294/1 566/295/1 568/296/1 569/297/1 561/298/1 563/299/1 559/300/1 560/301/1 562/302/1 564/303/1 567/304/1 158/305/1 162/306/1 165/307/1 170/308/1 173/309/1 178/310/1 181/311/1 185/312/1 190/313/1
f 576/314/1 575/288/1 103/287/1 113/315/1 127/316/1 133/317/1 139/318/1 145/319/1 150/320/1 153/321/1 158/305/1 567/304/1 565/322/1 581/323/1 572/324/1 570/325/1 580/326/1 578/327/1
f 534/328/51 5/182/51 14/185/51 525/329/51
f 573/330/51 549/331/51 558/332/51 582/333/51
f 525/329/52 14/185/52 23/187/52 523/334/52
f 571/335/52 547/336/52 549/331/52 573/330/52
f 523/334/53 23/187/53 34/189/53 531/337/53
f 579/338/53 555/339/53 547/336/53 571/335/53
f 34/189/54 42/191/54 526/340/54 531/337/54
f 554/341/54 555/339/54 579/338/54 574/342/54
f 42/191/55 55/193/55 529/343/55 526/340/55
f 553/344/55 554/341/55 574/342/55 577/345/55
f 55/193/56 62/195/56 527/346/56 529/343/56
f 551/347/56 553/344/56 577/345/56 575/348/56
f 62/195/57 72/197/57 528/349/57 527/346/57
f 552/350/57 551/347/57 575/348/57 576/351/57
f 72/197/58 77/199/58 530/352/58 528/349/58
f 550/353/58 552/350/58 576/351/58 578/354/58
f 77/199/59 85/201/59 532/355/59 530/352/59
f 556/356/59 550/353/59 578/354/59 580/357/59
f 85/201/60 91/203/60 522/358/60 532/355/60
f 546/359/60 556/356/60 580/357/60 570/360/60
f 91/203/61 95/205/61 524/361/61 522/358/61
f 548/362/61 546/359/61 570/360/61 572/363/61
f 95/205/62 101/207/62 533/364/62 524/361/62
f 557/365/62 548/362/62 572/363/62 581/366/62
f 101/207/39 107/209/39 517/367/39 533/364/39
f 541/368/39 557/365/39 581/366/39 565/369/39
f 107/209/40 115/211/40 519/370/40 517/367/40
f 543/371/40 541/368/40 565/369/40 567/372/40
f 115/211/41 121/213/41 516/414/41 519/370/41
f 545/374/41 543/371/41 567/372/41 564/375/41
f 516/414/42 121/213/42 125/215/42 514/376/42
f 562/377/42 538/378/42 545/374/42 564/375/42
f 514/376/43 125/215/43 129/217/43 511/379/43
f 560/380/43 536/381/43 538/378/43 562/377/43
f 511/379/44 129/217/44 132/219/44 512/382/44
f 559/383/44 535/384/44 536/381/44 560/380/44
f 512/382/45 132/219/45 134/221/45 515/385/45
f 563/386/45 537/387/45 535/384/45 559/383/45
f 515/385/46 134/221/46 138/223/46 513/388/46
f 561/389/46 539/390/46 537/387/46 563/386/46
f 513/388/47 138/223/47 140/225/47 521/413/47
f 569/392/47 540/393/47 539/390/47 561/389/47
f 521/413/48 140/225/48 144/227/48 520/394/48
f 568/395/48 544/396/48 540/393/48 569/392/48
f 520/394/49 144/227/49 146/277/49 518/397/49
f 566/398/49 542/399/49 544/396/49 568/395/49
f 518/397/50 146/277/50 5/279/50 534/400/50
f 582/401/50 558/402/50 542/399/50 566/398/50
f 91/403/2 85/404/2 77/316/2 72/405/2 62/287/2 55/286/2 42/285/2 34/284/2 23/283/2 14/282/2 5/281/2 146/280/2 144/313/2 140/312/2 138/311/2 134/310/2 132/309/2 129/406/2 125/307/2 121/407/2 115/408/2 107/321/2 101/409/2 95/319/2
f 3/182/39 8/183/39 12/184/39 11/185/39
f 11/185/40 12/184/40 18/186/40 17/187/40
f 17/187/41 18/186/41 27/188/41 22/189/41
f 22/189/42 27/188/42 33/190/42 31/191/42
f 31/191/43 33/190/43 38/192/43 36/193/43
f 36/193/44 38/192/44 46/194/44 43/195/44
f 43/195/45 46/194/45 50/196/45 49/197/45
f 49/197/46 50/196/46 58/198/46 53/199/46
f 53/199/47 58/198/47 64/200/47 59/201/47
f 59/201/48 64/200/48 69/202/48 66/203/48
f 66/203/49 69/202/49 76/204/49 73/205/49
f 73/205/50 76/204/50 80/206/50 78/207/50
f 78/207/51 80/206/51 83/208/51 81/209/51
f 81/209/52 83/208/52 87/210/52 86/211/52
f 86/211/53 87/210/53 92/212/53 90/213/53
f 90/213/54 92/212/54 96/214/54 93/215/54
f 93/215/55 96/214/55 99/216/55 98/217/55
f 98/217/56 99/216/56 104/218/56 102/219/56
f 102/219/57 104/218/57 108/220/57 105/221/57
f 105/221/58 108/220/58 111/222/58 109/223/58
f 109/223/59 111/222/59 116/224/59 114/225/59
f 114/225/60 116/224/60 119/226/60 117/227/60
f 104/228/2 99/229/2 96/230/2 92/231/2 617/232/2 610/233/2 608/234/2 607/235/2 609/236/2 611/237/2 612/238/2 616/239/2 614/240/2 123/241/2 119/242/2 116/243/2 111/244/2 108/245/2
f 18/246/2 12/247/2 8/248/2 123/241/2 614/240/2 630/249/2 621/250/2 619/251/2 627/252/2 626/253/2 625/254/2 623/255/2 624/256/2 622/257/2 628/258/2 618/259/2 620/260/2 629/261/2 613/262/2 615/263/2 617/232/2 92/231/2 87/264/2 83/265/2 80/266/2 76/267/2 69/268/2 64/269/2 58/270/2 50/271/2 46/272/2 38/273/2 33/274/2 27/275/2
f 117/227/61 119/226/61 123/276/61 122/277/61
f 122/277/62 123/276/62 8/278/62 3/279/62
f 122/280/1 3/281/1 11/282/1 17/283/1 22/284/1 31/285/1 36/286/1 43/287/1 647/288/1 649/289/1 646/290/1 651/291/1 643/292/1 645/293/1 654/294/1 638/295/1 640/296/1 641/297/1 633/298/1 635/299/1 631/300/1 632/301/1 634/302/1 636/303/1 639/304/1 86/305/1 90/306/1 93/307/1 98/308/1 102/309/1 105/310/1 109/311/1 114/312/1 117/313/1
f 648/314/1 647/288/1 43/287/1 49/315/1 53/316/1 59/317/1 66/318/1 73/319/1 78/320/1 81/321/1 86/305/1 639/304/1 637/322/1 653/323/1 644/324/1 642/325/1 652/326/1 650/327/1
f 605/328/51 2/182/51 7/185/51 594/329/51
f 645/330/51 621/331/51 630/332/51 654/333/51
f 594/329/52 7/185/52 10/187/52 597/334/52
f 643/335/52 619/336/52 621/331/52 645/330/52
f 597/334/53 10/187/53 13/189/53 604/337/53
f 651/338/53 627/339/53 619/336/53 643/335/53
f 13/189/54 16/191/54 599/340/54 604/337/54
f 626/341/54 627/339/54 651/338/54 646/342/54
f 16/191/55 19/193/55 602/343/55 599/340/55
f 625/344/55 626/341/55 646/342/55 649/345/55
f 19/193/56 21/195/56 600/411/56 602/343/56
f 623/347/56 625/344/56 649/345/56 647/348/56
f 21/195/57 25/197/57 601/349/57 600/411/57
f 624/350/57 623/347/57 647/348/57 648/351/57
f 25/197/58 28/199/58 598/352/58 601/349/58
f 622/353/58 624/350/58 648/351/58 650/354/58
f 28/199/59 32/201/59 603/415/59 598/352/59
f 628/356/59 622/353/59 650/354/59 652/357/59
f 32/201/60 35/203/60 595/358/60 603/415/60
f 618/359/60 628/356/60 652/357/60 642/360/60
f 35/203/61 39/205/61 596/361/61 595/358/61
f 620/362/61 618/359/61 642/360/61 644/363/61
f 39/205/62 41/207/62 606/364/62 596/361/62
f 629/365/62 620/362/62 644/363/62 653/366/62
f 41/207/39 44/209/39 588/367/39 606/364/39
f 613/368/39 629/365/39 653/366/39 637/369/39
f 44/209/40 47/211/40 590/370/40 588/367/40
f 615/371/40 613/368/40 637/369/40 639/372/40
f 47/211/41 51/213/41 592/373/41 590/370/41
f 617/374/41 615/371/41 639/372/41 636/375/41
f 592/373/42 51/213/42 54/215/42 586/376/42
f 634/377/42 610/378/42 617/374/42 636/375/42
f 586/376/43 54/215/43 56/217/43 584/379/43
f 632/380/43 608/381/43 610/378/43 634/377/43
f 584/379/44 56/217/44 60/219/44 583/412/44
f 631/383/44 607/384/44 608/381/44 632/380/44
f 583/412/45 60/219/45 63/221/45 585/385/45
f 635/386/45 609/387/45 607/384/45 631/383/45
f 585/385/46 63/221/46 65/223/46 587/388/46
f 633/389/46 611/390/46 609/387/46 635/386/46
f 587/388/47 65/223/47 68/225/47 593/413/47
f 641/392/47 612/393/47 611/390/47 633/389/47
f 593/413/48 68/225/48 71/227/48 591/394/48
f 640/395/48 616/396/48 612/393/48 641/392/48
f 591/394/49 71/227/49 74/277/49 589/397/49
f 638/398/49 614/399/49 616/396/49 640/395/49
f 589/397/50 74/277/50 2/279/50 605/400/50
f 654/401/50 630/402/50 614/399/50 638/398/50
f 71/313/2 68/312/2 65/311/2 63/310/2 60/309/2 56/406/2 54/307/2 51/407/2 47/408/2 44/321/2 41/409/2 39/319/2 35/403/2 32/404/2 28/316/2 25/405/2 21/287/2 19/286/2 16/285/2 13/284/2 10/283/2 7/282/2 2/281/2 74/280/2
f 659/416/35 657/417/35 655/418/35 661/419/35
f 662/420/37 656/421/37 658/422/37 660/423/37
f 661/424/2 655/425/2 656/421/2 662/420/2
f 658/422/1 657/426/1 659/427/1 660/423/1
f 664/428/36 666/429/36 669/430/36 668/431/36
f 670/432/38 665/433/38 663/434/38 667/435/38
f 691/436/2 683/437/2 664/438/2 668/439/2 689/440/2 693/441/2
f 692/442/2 690/443/2 667/444/2 663/445/2 684/446/2 694/447/2
f 697/448/1 679/449/1 665/450/1 670/451/1 688/452/1 696/453/1
f 698/454/1 687/455/1 669/456/1 666/457/1 680/458/1 695/459/1
f 693/460/51 1/182/51 4/185/51 691/461/51
f 695/462/51 677/463/51 675/464/51 698/465/51
f 672/466/52 677/463/52 695/462/52 680/467/52
f 691/461/52 4/185/52 682/468/52 683/469/52
f 671/470/61 679/471/61 697/472/61 678/473/61
f 681/474/61 26/205/61 694/475/61 684/476/61
f 26/205/62 29/207/62 692/477/62 694/475/62
f 674/478/62 678/473/62 697/472/62 696/479/62
f 29/207/39 685/480/39 690/481/39 692/477/39
f 673/482/39 674/478/39 696/479/39 688/483/39
f 689/484/50 686/485/50 1/279/50 693/486/50
f 698/487/50 675/402/50 676/488/50 687/489/50
f 681/490/2 682/491/2 4/282/2 1/281/2 686/492/2 685/493/2 29/409/2 26/319/2
f 738/494/51 722/495/51 713/496/51 737/497/51
f 737/497/52 713/496/52 711/498/52 736/499/52
f 736/499/53 711/498/53 719/500/53 733/501/53
f 733/501/54 719/500/54 714/502/54 728/503/54 724/504/54
f 714/502/55 717/505/55 731/506/55 728/503/55
f 717/505/56 715/507/56 726/508/56 731/506/56
f 726/508/57 715/507/57 716/509/57 740/510/57 727/511/57
f 716/509/58 718/512/58 742/513/58 740/510/58
f 718/512/59 720/514/59 750/515/59 742/513/59
f 720/514/60 710/516/60 748/517/60 750/515/60
f 710/516/61 712/518/61 749/519/61 748/517/61
f 712/518/62 721/520/62 747/521/62 749/519/62
f 721/520/39 705/522/39 746/523/39 747/521/39
f 705/522/40 707/524/40 745/525/40 746/523/40
f 707/524/41 704/526/41 744/527/41 745/525/41
f 744/527/42 704/526/42 702/528/42 743/529/42
f 743/529/43 702/528/43 699/530/43 741/531/43
f 741/531/44 699/530/44 700/532/44 739/533/44
f 725/534/45 739/533/45 700/532/45 703/535/45 729/536/45
f 729/536/46 703/535/46 701/537/46 730/538/46
f 723/539/47 730/538/47 701/537/47 709/540/47 732/541/47
f 732/541/48 709/540/48 708/542/48 735/543/48
f 735/543/49 708/542/49 706/544/49 734/545/49
f 734/545/50 706/544/50 722/546/50 738/547/50
f 802/494/51 776/495/51 769/496/51 799/497/51
f 799/497/52 769/496/52 772/498/52 801/499/52
f 801/499/53 772/498/53 771/500/53 800/501/53
f 771/500/54 770/502/54 795/503/54 800/501/54
f 770/502/55 775/505/55 781/506/55 778/548/55 795/503/55
f 775/505/56 773/507/56 794/508/56 781/506/56
f 773/507/57 774/509/57 791/510/57 794/508/57
f 774/509/58 754/549/58 755/512/58 790/513/58 791/510/58
f 755/512/59 753/514/59 788/515/59 790/513/59
f 753/514/60 758/516/60 789/517/60 788/515/60
f 758/516/61 761/518/61 787/519/61 789/517/61
f 761/518/62 760/520/62 792/521/62 787/519/62
f 760/520/39 759/522/39 784/523/39 792/521/39
f 759/522/40 757/524/40 785/525/40 784/523/40
f 757/524/41 756/526/41 786/527/41 785/525/41
f 786/527/42 756/526/42 752/528/42 782/529/42
f 782/529/43 752/528/43 751/550/43 763/530/43 783/531/43
f 783/531/44 763/530/44 762/532/44 793/533/44
f 793/533/45 762/532/45 764/535/45 780/536/45
f 780/536/46 764/535/46 768/537/46 777/538/46
f 777/538/47 768/537/47 765/540/47 796/541/47 779/551/47
f 796/541/48 765/540/48 767/542/48 798/543/48
f 798/543/49 767/542/49 766/544/49 797/545/49
f 797/545/50 766/544/50 776/546/50 802/547/50
